<?xml version="1.0" encoding="UTF-8" standalone="no"?>
<svg width="276px" height="114px" viewBox="0 0 276 114" version="1.1" xmlns="http://www.w3.org/2000/svg" xmlns:xlink="http://www.w3.org/1999/xlink" xmlns:sketch="http://www.bohemiancoding.com/sketch/ns">
    <!-- Generator: Sketch Beta 3.1.1 (8761) - http://www.bohemiancoding.com/sketch -->
    <title>Group</title>
    <desc>Created with Sketch Beta.</desc>
    <defs></defs>
    <g id="I-Vaade" stroke="none" stroke-width="1" fill="none" fill-rule="evenodd" sketch:type="MSPage">
        <g id="Desktop-HD" sketch:type="MSArtboardGroup" transform="translate(-493.000000, -152.000000)">
            <g id="Group" sketch:type="MSLayerGroup" transform="translate(500.000000, 154.000000)">
                <path d="M0.655913978,108 L256.5,108" id="Line" stroke="#f6d94f" stroke-width="2" stroke-linecap="square" sketch:type="MSShapeGroup"></path>
                <path d="M67.5,9 L116.693548,9" id="Line-2" stroke="#f6d94f" stroke-width="2" stroke-linecap="square" sketch:type="MSShapeGroup"></path>
                <path d="M2.01613967,89.0207604 L2.01613967,84.9244766 L16.801164,62.6189313 C17.6545607,61.3175013 18.3532688,60.2241031 18.8973092,59.338704 C19.4413496,58.4533049 20.0707202,57.3225713 20.78544,55.946469 C21.5001597,54.5703668 22.0388583,53.2422881 22.4015519,51.962193 C22.7642455,50.6820979 22.9455896,49.4660258 22.9455896,48.3139403 C22.9455896,44.8576835 22.3642218,42.1215213 21.2014688,40.1053716 C20.0387158,38.0892218 18.1879394,37.0811621 15.6490841,37.0811621 C14.1983097,37.0811621 12.9342348,37.32651 11.8568214,37.8172131 C10.7794081,38.3079162 9.93669144,38.9372868 9.32864627,39.7053439 C8.72060111,40.4734009 8.235239,41.4547924 7.8725454,42.6495479 C7.50985179,43.8443033 7.26983756,45.0123725 7.15249551,46.1537906 C7.03515346,47.2952087 6.97648332,48.6126202 6.97648332,50.1060644 L2.11214633,50.1060644 L2.11214633,49.3700134 C2.32549551,38.5745449 6.81642839,33.1768916 15.5850797,33.1768916 C19.6387141,33.1768916 22.6895617,34.5156376 24.7377138,37.1931698 C26.7858659,39.8707021 27.8099266,43.5669212 27.8099266,48.2819381 C27.8099266,50.5221044 27.1858896,53.0449207 25.9377969,55.8504624 C24.6897042,58.6560041 23.2442852,61.2534914 21.6014965,63.6430022 L7.74453653,85.1164899 L27.1378801,85.1164899 L27.1378801,89.0207604 L2.01613967,89.0207604 Z M33.7303368,75.259807 L38.5946738,74.9077826 C38.5946738,77.169284 38.7386823,79.0307276 39.0267037,80.4921695 C39.3147251,81.9536114 39.7787526,83.0843451 40.4188001,83.8844045 C41.0588477,84.684464 41.800225,85.2338299 42.6429542,85.5325187 C43.4856835,85.8312076 44.5470797,85.9805498 45.8271748,85.9805498 C48.4300348,85.9805498 50.3394814,84.9084862 51.5555717,82.7643269 C52.771662,80.6201677 53.3796981,76.9986197 53.3796981,71.8995742 C53.3796981,67.013878 52.8089976,63.5576731 51.6675794,61.5308559 C50.5261613,59.5040387 48.675385,58.4906453 46.1151948,58.4906453 C44.7284251,58.4906453 43.315008,58.8640008 41.874901,59.6107229 C40.4347941,60.357445 39.2240556,61.4775114 38.2426494,62.9709557 L34.3383789,62.9709557 L34.3383789,33.9449448 L55.4278399,33.9449448 L54.9798089,37.8492153 L39.2027159,37.8492153 L38.5306693,58.1066187 C39.5334105,57.0398728 40.7974854,56.1864889 42.3229321,55.5464413 C43.8483787,54.9063938 45.4324726,54.5863748 47.0752613,54.5863748 C49.0807436,54.5863748 50.8195133,55.0290677 52.2916227,55.9144668 C53.763732,56.7998659 54.9264676,58.0532736 55.7798643,59.6747273 C56.6332611,61.2961811 57.2572981,63.1149556 57.651994,65.1311053 C58.04669,67.1472551 58.2440351,69.3927215 58.2440351,71.867572 C58.2440351,74.4490971 58.0093545,76.8012365 57.5399863,78.9240609 C57.0706181,81.0468852 56.3612427,82.9403308 55.4118388,84.6044544 C54.462435,86.268578 53.1716918,87.5646549 51.5395706,88.4927238 C49.9074493,89.4207927 48.0033365,89.8848202 45.8271748,89.8848202 C41.6028611,89.8848202 38.5306789,88.6474135 36.6105363,86.1725631 C34.6903937,83.6977126 33.7303368,80.0601636 33.7303368,75.259807 L33.7303368,75.259807 Z M59.2041016,89.0207604 L76.8693254,33.9449448 L81.5096469,33.9449448 L63.8124208,89.0207604 L59.2041016,89.0207604 Z M88.4221257,89.0207604 L88.4221257,41.7214836 C87.5047243,42.3401962 86.4379944,42.9268976 85.221904,43.4816055 C84.0058137,44.0363134 83.0244222,44.3990015 82.2777001,44.5696809 L82.2777001,39.9613616 C83.5577951,39.4919934 84.944544,38.7399488 86.4379883,37.7052053 C87.9314325,36.6704618 89.1155027,35.4170542 89.9902344,33.9449448 L93.2864627,33.9449448 L93.2864627,89.0207604 L88.4221257,89.0207604 Z M101.735048,73.0516541 L101.735048,49.9780556 C101.735048,48.036578 101.868389,46.2551391 102.135076,44.6336853 C102.401762,43.0122315 102.855122,41.4814741 103.49517,40.0413672 C104.135218,38.6012602 104.945932,37.3851881 105.927338,36.3931144 C106.908745,35.4010407 108.151485,34.6169942 109.655597,34.0409515 C111.159708,33.4649087 112.882477,33.1768916 114.823955,33.1768916 C116.765432,33.1768916 118.488201,33.4649087 119.992313,34.0409515 C121.496425,34.6169942 122.739165,35.4010407 123.720571,36.3931144 C124.701977,37.3851881 125.512692,38.6012602 126.15274,40.0413672 C126.792787,41.4814741 127.246147,43.0122315 127.512834,44.6336853 C127.77952,46.2551391 127.912862,48.036578 127.912862,49.9780556 L127.912862,73.0516541 C127.912862,84.273821 123.549936,89.8848202 114.823955,89.8848202 C106.097973,89.8848202 101.735048,84.273821 101.735048,73.0516541 L101.735048,73.0516541 Z M123.048525,74.1397294 L123.048525,48.8899802 C123.048525,41.0173954 120.307029,37.0811621 114.823955,37.0811621 C109.340881,37.0811621 106.599385,41.0173954 106.599385,48.8899802 L106.599385,74.1397294 C106.599385,82.0336491 109.340881,85.9805498 114.823955,85.9805498 C120.307029,85.9805498 123.048525,82.0336491 123.048525,74.1397294 L123.048525,74.1397294 Z M130.569046,89.0207604 L148.234269,33.9449448 L152.874591,33.9449448 L135.177365,89.0207604 L130.569046,89.0207604 Z M154.346693,89.0207604 L154.346693,84.9244766 L169.131717,62.6189313 C169.985114,61.3175013 170.683822,60.2241031 171.227862,59.338704 C171.771903,58.4533049 172.401273,57.3225713 173.115993,55.946469 C173.830713,54.5703668 174.369412,53.2422881 174.732105,51.962193 C175.094799,50.6820979 175.276143,49.4660258 175.276143,48.3139403 C175.276143,44.8576835 174.694775,42.1215213 173.532022,40.1053716 C172.369269,38.0892218 170.518493,37.0811621 167.979637,37.0811621 C166.528863,37.0811621 165.264788,37.32651 164.187375,37.8172131 C163.109961,38.3079162 162.267245,38.9372868 161.659199,39.7053439 C161.051154,40.4734009 160.565792,41.4547924 160.203099,42.6495479 C159.840405,43.8443033 159.600391,45.0123725 159.483049,46.1537906 C159.365707,47.2952087 159.307037,48.6126202 159.307037,50.1060644 L154.4427,50.1060644 L154.4427,49.3700134 C154.656049,38.5745449 159.146982,33.1768916 167.915633,33.1768916 C171.969267,33.1768916 175.020115,34.5156376 177.068267,37.1931698 C179.116419,39.8707021 180.14048,43.5669212 180.14048,48.2819381 C180.14048,50.5221044 179.516443,53.0449207 178.26835,55.8504624 C177.020257,58.6560041 175.574838,61.2534914 173.93205,63.6430022 L160.07509,85.1164899 L179.468433,85.1164899 L179.468433,89.0207604 L154.346693,89.0207604 Z M185.868877,73.0516541 L185.868877,49.9780556 C185.868877,48.036578 186.002218,46.2551391 186.268904,44.6336853 C186.535591,43.0122315 186.988951,41.4814741 187.628999,40.0413672 C188.269046,38.6012602 189.079761,37.3851881 190.061167,36.3931144 C191.042573,35.4010407 192.285314,34.6169942 193.789425,34.0409515 C195.293537,33.4649087 197.016306,33.1768916 198.957783,33.1768916 C200.899261,33.1768916 202.62203,33.4649087 204.126142,34.0409515 C205.630253,34.6169942 206.872994,35.4010407 207.8544,36.3931144 C208.835806,37.3851881 209.646521,38.6012602 210.286568,40.0413672 C210.926616,41.4814741 211.379976,43.0122315 211.646663,44.6336853 C211.913349,46.2551391 212.04669,48.036578 212.04669,49.9780556 L212.04669,73.0516541 C212.04669,84.273821 207.683765,89.8848202 198.957783,89.8848202 C190.231802,89.8848202 185.868877,84.273821 185.868877,73.0516541 L185.868877,73.0516541 Z M207.182353,74.1397294 L207.182353,48.8899802 C207.182353,41.0173954 204.440857,37.0811621 198.957783,37.0811621 C193.47471,37.0811621 190.733214,41.0173954 190.733214,48.8899802 L190.733214,74.1397294 C190.733214,82.0336491 193.47471,85.9805498 198.957783,85.9805498 C204.440857,85.9805498 207.182353,82.0336491 207.182353,74.1397294 L207.182353,74.1397294 Z M223.087455,89.0207604 L223.087455,41.7214836 C222.170054,42.3401962 221.103324,42.9268976 219.887233,43.4816055 C218.671143,44.0363134 217.689752,44.3990015 216.943029,44.5696809 L216.943029,39.9613616 C218.223125,39.4919934 219.609873,38.7399488 221.103318,37.7052053 C222.596762,36.6704618 223.780832,35.4170542 224.655564,33.9449448 L227.951792,33.9449448 L227.951792,89.0207604 L223.087455,89.0207604 Z M238.60853,69.1153814 L248.817238,69.1153814 L248.785235,37.9452219 L238.60853,69.1153814 Z M248.817238,89.0207604 L248.817238,72.7316319 L233.520178,72.7316319 L233.520178,69.3713991 L246.225058,33.8809404 L253.681575,33.8809404 L253.681575,69.1153814 L259.153954,69.1153814 L259.153954,72.7316319 L253.681575,72.7316319 L253.681575,89.0207604 L248.817238,89.0207604 Z" id="25/10/2014" fill="#FFFFFF" sketch:type="MSShapeGroup"></path>
                <path d="M131.582787,12.1959186 L131.582787,5.15490302 C131.582787,4.55594169 131.621849,4.01232733 131.699975,3.52404364 C131.7781,3.03575995 131.916445,2.57026981 132.115014,2.12755927 C132.313583,1.68484872 132.569114,1.31213109 132.881615,1.0093952 C133.194117,0.706659316 133.592876,0.467403896 134.077904,0.291621767 C134.562933,0.115839638 135.124451,0.0279498922 135.762475,0.0279498922 C138.392696,0.0279498922 139.707787,1.73691718 139.707787,5.15490302 L139.707787,5.83849677 L138.291772,5.83849677 L138.291772,4.82287177 C138.291772,4.28250448 138.251082,3.80399364 138.169701,3.38732489 C138.088321,2.97065614 137.953231,2.59468334 137.764428,2.2593952 C137.575625,1.92410707 137.313583,1.66694818 136.978295,1.48791083 C136.643007,1.30887348 136.237738,1.21935614 135.762475,1.21935614 C135.332785,1.21935614 134.95844,1.27957689 134.639428,1.4000202 C134.320416,1.52046352 134.061629,1.68484989 133.863061,1.89318427 C133.664492,2.10151864 133.504988,2.3619327 133.384545,2.67443427 C133.264102,2.98693583 133.181095,3.314081 133.135522,3.65587958 C133.089949,3.99767816 133.067162,4.38667167 133.067162,4.82287177 L133.067162,12.5279499 C133.067162,13.0813381 133.106224,13.5614765 133.18435,13.9683796 C133.262475,14.3752827 133.397565,14.7496279 133.589623,15.0914265 C133.781681,15.433225 134.059999,15.6936391 134.424584,15.8726765 C134.789169,16.0517138 135.235128,16.1412311 135.762475,16.1412311 C136.237738,16.1412311 136.643007,16.0517138 136.978295,15.8726765 C137.313583,15.6936391 137.575625,15.4348526 137.764428,15.0963093 C137.953231,14.7577659 138.088321,14.3801655 138.169701,13.9634968 C138.251082,13.546828 138.291772,13.0683172 138.291772,12.5279499 L138.291772,11.3756061 L139.707787,11.3756061 L139.707787,12.1959186 C139.707787,12.7883695 139.67198,13.3287287 139.600365,13.8170124 C139.52875,14.3052961 139.400171,14.7724138 139.214623,15.2183796 C139.029075,15.6643454 138.78982,16.0386906 138.49685,16.3414265 C138.20388,16.6441623 137.826279,16.8850454 137.364037,17.0640827 C136.901795,17.2431201 136.367947,17.3326374 135.762475,17.3326374 C135.11143,17.3326374 134.540147,17.2431201 134.048608,17.0640827 C133.557069,16.8850454 133.156682,16.6441623 132.847436,16.3414265 C132.538189,16.0386906 132.287541,15.6643454 132.095483,15.2183796 C131.903424,14.7724138 131.769962,14.3069237 131.695092,13.8218952 C131.620222,13.3368667 131.582787,12.79488 131.582787,12.1959186 L131.582787,12.1959186 Z M141.660912,12.1959186 L141.660912,5.15490302 C141.660912,4.56245214 141.704857,4.01883778 141.792748,3.52404364 C141.880639,3.0292495 142.02875,2.56213178 142.237084,2.12267645 C142.445419,1.68322113 142.709088,1.31213109 143.0281,1.0093952 C143.347112,0.706659316 143.754009,0.467403896 144.248803,0.291621767 C144.743597,0.115839638 145.309998,0.0279498922 145.948022,0.0279498922 C146.586046,0.0279498922 147.152446,0.115839638 147.64724,0.291621767 C148.142035,0.467403896 148.548932,0.706659316 148.867944,1.0093952 C149.186956,1.31213109 149.450625,1.68322113 149.658959,2.12267645 C149.867294,2.56213178 150.015404,3.0292495 150.103295,3.52404364 C150.191186,4.01883778 150.235131,4.56245214 150.235131,5.15490302 L150.235131,12.1959186 C150.235131,15.6204149 148.806109,17.3326374 145.948022,17.3326374 C143.089934,17.3326374 141.660912,15.6204149 141.660912,12.1959186 L141.660912,12.1959186 Z M148.750756,12.5279499 L148.750756,4.82287177 C148.750756,2.42051601 147.816521,1.21935614 145.948022,1.21935614 C144.079523,1.21935614 143.145287,2.42051601 143.145287,4.82287177 L143.145287,12.5279499 C143.145287,14.9368161 144.079523,16.1412311 145.948022,16.1412311 C147.816521,16.1412311 148.750756,14.9368161 148.750756,12.5279499 L148.750756,12.5279499 Z M152.461694,12.1959186 L152.461694,5.15490302 C152.461694,4.55594169 152.500756,4.01232733 152.578881,3.52404364 C152.657006,3.03575995 152.795351,2.57026981 152.99392,2.12755927 C153.192489,1.68484872 153.44802,1.31213109 153.760522,1.0093952 C154.073023,0.706659316 154.471782,0.467403896 154.956811,0.291621767 C155.441839,0.115839638 156.003357,0.0279498922 156.641381,0.0279498922 C159.271603,0.0279498922 160.586694,1.73691718 160.586694,5.15490302 L160.586694,5.83849677 L159.170678,5.83849677 L159.170678,4.82287177 C159.170678,4.28250448 159.129988,3.80399364 159.048608,3.38732489 C158.967227,2.97065614 158.832137,2.59468334 158.643334,2.2593952 C158.454531,1.92410707 158.192489,1.66694818 157.857201,1.48791083 C157.521913,1.30887348 157.116644,1.21935614 156.641381,1.21935614 C156.211691,1.21935614 155.837346,1.27957689 155.518334,1.4000202 C155.199322,1.52046352 154.940536,1.68484989 154.741967,1.89318427 C154.543398,2.10151864 154.383895,2.3619327 154.263451,2.67443427 C154.143008,2.98693583 154.060001,3.314081 154.014428,3.65587958 C153.968855,3.99767816 153.946069,4.38667167 153.946069,4.82287177 L153.946069,12.5279499 C153.946069,13.0813381 153.985131,13.5614765 154.063256,13.9683796 C154.141381,14.3752827 154.276471,14.7496279 154.468529,15.0914265 C154.660588,15.433225 154.938905,15.6936391 155.30349,15.8726765 C155.668076,16.0517138 156.114035,16.1412311 156.641381,16.1412311 C157.116644,16.1412311 157.521913,16.0517138 157.857201,15.8726765 C158.192489,15.6936391 158.454531,15.4348526 158.643334,15.0963093 C158.832137,14.7577659 158.967227,14.3801655 159.048608,13.9634968 C159.129988,13.546828 159.170678,13.0683172 159.170678,12.5279499 L159.170678,11.3756061 L160.586694,11.3756061 L160.586694,12.1959186 C160.586694,12.7883695 160.550887,13.3287287 160.479272,13.8170124 C160.407657,14.3052961 160.279077,14.7724138 160.093529,15.2183796 C159.907982,15.6643454 159.668726,16.0386906 159.375756,16.3414265 C159.082786,16.6441623 158.705185,16.8850454 158.242944,17.0640827 C157.780702,17.2431201 157.246853,17.3326374 156.641381,17.3326374 C155.990336,17.3326374 155.419053,17.2431201 154.927514,17.0640827 C154.435975,16.8850454 154.035588,16.6441623 153.726342,16.3414265 C153.417096,16.0386906 153.166447,15.6643454 152.974389,15.2183796 C152.782331,14.7724138 152.648868,14.3069237 152.573998,13.8218952 C152.499128,13.3368667 152.461694,12.79488 152.461694,12.1959186 L152.461694,12.1959186 Z M164.414819,11.7076374 L167.930444,11.7076374 L166.162865,1.80529364 L164.414819,11.7076374 Z M163.379662,17.0689655 L161.885522,17.0689655 L165.205834,0.262324892 L167.139428,0.262324892 L170.45974,17.0689655 L168.955834,17.0689655 L168.11599,12.6939655 L164.239037,12.6939655 L163.379662,17.0689655 Z M172.061303,12.6939655 L172.061303,11.5709186 L175.117944,11.5709186 L175.117944,12.6939655 L172.061303,12.6939655 Z M177.227319,12.1959186 L177.227319,5.15490302 C177.227319,4.55594169 177.266381,4.01232733 177.344506,3.52404364 C177.422631,3.03575995 177.560976,2.57026981 177.759545,2.12755927 C177.958114,1.68484872 178.213645,1.31213109 178.526147,1.0093952 C178.838648,0.706659316 179.237407,0.467403896 179.722436,0.291621767 C180.207464,0.115839638 180.768982,0.0279498922 181.407006,0.0279498922 C184.037228,0.0279498922 185.352319,1.73691718 185.352319,5.15490302 L185.352319,5.83849677 L183.936303,5.83849677 L183.936303,4.82287177 C183.936303,4.28250448 183.895613,3.80399364 183.814233,3.38732489 C183.732852,2.97065614 183.597762,2.59468334 183.408959,2.2593952 C183.220156,1.92410707 182.958114,1.66694818 182.622826,1.48791083 C182.287538,1.30887348 181.882269,1.21935614 181.407006,1.21935614 C180.977316,1.21935614 180.602971,1.27957689 180.283959,1.4000202 C179.964947,1.52046352 179.706161,1.68484989 179.507592,1.89318427 C179.309023,2.10151864 179.14952,2.3619327 179.029076,2.67443427 C178.908633,2.98693583 178.825626,3.314081 178.780053,3.65587958 C178.73448,3.99767816 178.711694,4.38667167 178.711694,4.82287177 L178.711694,12.5279499 C178.711694,13.0813381 178.750756,13.5614765 178.828881,13.9683796 C178.907006,14.3752827 179.042096,14.7496279 179.234154,15.0914265 C179.426213,15.433225 179.70453,15.6936391 180.069115,15.8726765 C180.433701,16.0517138 180.87966,16.1412311 181.407006,16.1412311 C181.882269,16.1412311 182.287538,16.0517138 182.622826,15.8726765 C182.958114,15.6936391 183.220156,15.4348526 183.408959,15.0963093 C183.597762,14.7577659 183.732852,14.3801655 183.814233,13.9634968 C183.895613,13.546828 183.936303,13.0683172 183.936303,12.5279499 L183.936303,11.3756061 L185.352319,11.3756061 L185.352319,12.1959186 C185.352319,12.7883695 185.316512,13.3287287 185.244897,13.8170124 C185.173282,14.3052961 185.044702,14.7724138 184.859154,15.2183796 C184.673607,15.6643454 184.434351,16.0386906 184.141381,16.3414265 C183.848411,16.6441623 183.47081,16.8850454 183.008569,17.0640827 C182.546327,17.2431201 182.012478,17.3326374 181.407006,17.3326374 C180.755961,17.3326374 180.184678,17.2431201 179.693139,17.0640827 C179.2016,16.8850454 178.801213,16.6441623 178.491967,16.3414265 C178.182721,16.0386906 177.932072,15.6643454 177.740014,15.2183796 C177.547956,14.7724138 177.414493,14.3069237 177.339623,13.8218952 C177.264753,13.3368667 177.227319,12.79488 177.227319,12.1959186 L177.227319,12.1959186 Z M187.305444,12.1959186 L187.305444,5.15490302 C187.305444,4.56245214 187.349388,4.01883778 187.437279,3.52404364 C187.525171,3.0292495 187.673281,2.56213178 187.881615,2.12267645 C188.08995,1.68322113 188.353619,1.31213109 188.672631,1.0093952 C188.991643,0.706659316 189.39854,0.467403896 189.893334,0.291621767 C190.388128,0.115839638 190.954529,0.0279498922 191.592553,0.0279498922 C192.230577,0.0279498922 192.796978,0.115839638 193.291772,0.291621767 C193.786566,0.467403896 194.193463,0.706659316 194.512475,1.0093952 C194.831487,1.31213109 195.095156,1.68322113 195.30349,2.12267645 C195.511825,2.56213178 195.659935,3.0292495 195.747826,3.52404364 C195.835717,4.01883778 195.879662,4.56245214 195.879662,5.15490302 L195.879662,12.1959186 C195.879662,15.6204149 194.45064,17.3326374 191.592553,17.3326374 C188.734466,17.3326374 187.305444,15.6204149 187.305444,12.1959186 L187.305444,12.1959186 Z M194.395287,12.5279499 L194.395287,4.82287177 C194.395287,2.42051601 193.461052,1.21935614 191.592553,1.21935614 C189.724054,1.21935614 188.789819,2.42051601 188.789819,4.82287177 L188.789819,12.5279499 C188.789819,14.9368161 189.724054,16.1412311 191.592553,16.1412311 C193.461052,16.1412311 194.395287,14.9368161 194.395287,12.5279499 L194.395287,12.5279499 Z M198.418725,17.0689655 L198.418725,0.262324892 L199.9031,0.262324892 L199.9031,15.8775593 L204.600365,15.8775593 L204.600365,17.0689655 L198.418725,17.0689655 Z M207.520287,11.7076374 L211.035912,11.7076374 L209.268334,1.80529364 L207.520287,11.7076374 Z M206.485131,17.0689655 L204.99099,17.0689655 L208.311303,0.262324892 L210.244897,0.262324892 L213.565209,17.0689655 L212.061303,17.0689655 L211.221459,12.6939655 L207.344506,12.6939655 L206.485131,17.0689655 Z M220.899194,8.40685614 L223.692162,8.41662177 C224.5255,8.42313222 225.121197,8.13504916 225.479272,7.55236395 C225.837346,6.96967875 226.016381,6.05660194 226.016381,4.81310614 C226.016381,3.65424618 225.824326,2.8046453 225.440209,2.26427802 C225.056093,1.72391073 224.473416,1.45373114 223.692162,1.45373114 L220.899194,1.45373114 L220.899194,8.40685614 Z M219.414819,17.0689655 L219.414819,0.262324892 L223.526147,0.262324892 C224.112087,0.262324892 224.632915,0.342076699 225.088647,0.501582705 C225.544378,0.661088711 225.921979,0.8775579 226.221459,1.15099677 C226.52094,1.42443563 226.768333,1.75646356 226.963647,2.14709052 C227.15896,2.53771747 227.297305,2.94949721 227.378686,3.38244208 C227.460066,3.81538695 227.500756,4.28250468 227.500756,4.78380927 C227.500756,5.29813476 227.466577,5.77339042 227.398217,6.20959052 C227.329857,6.64579061 227.202905,7.07872899 227.017358,7.50841864 C226.83181,7.93810829 226.594182,8.30106039 226.304467,8.59728583 C226.014752,8.89351127 225.632269,9.13439428 225.157006,9.31994208 C224.681743,9.50548988 224.134874,9.59826239 223.516381,9.59826239 L220.899194,9.59826239 L220.899194,17.0689655 L219.414819,17.0689655 Z M229.219506,17.0689655 L229.219506,0.262324892 L230.703881,0.262324892 L230.703881,15.8775593 L235.401147,15.8775593 L235.401147,17.0689655 L229.219506,17.0689655 Z M238.321069,11.7076374 L241.836694,11.7076374 L240.069115,1.80529364 L238.321069,11.7076374 Z M237.285912,17.0689655 L235.791772,17.0689655 L239.112084,0.262324892 L241.045678,0.262324892 L244.36599,17.0689655 L242.862084,17.0689655 L242.02224,12.6939655 L238.145287,12.6939655 L237.285912,17.0689655 Z M245.410912,17.0689655 L245.410912,15.6920124 L251.319115,1.45373114 L246.035912,1.45373114 L246.035912,0.262324892 L252.842553,0.262324892 L252.842553,1.63927802 L246.93435,15.8775593 L252.842553,15.8775593 L252.842553,17.0689655 L245.410912,17.0689655 Z M256.270287,11.7076374 L259.785912,11.7076374 L258.018334,1.80529364 L256.270287,11.7076374 Z M255.235131,17.0689655 L253.74099,17.0689655 L257.061303,0.262324892 L258.994897,0.262324892 L262.315209,17.0689655 L260.811303,17.0689655 L259.971459,12.6939655 L256.094506,12.6939655 L255.235131,17.0689655 Z" id="Coca-Cola-Plaza" fill="#f6d94f" sketch:type="MSShapeGroup"></path>
                <path d="M2.96063298,17.0689655 L2.96063298,1.45373114 L-0.310851394,1.45373114 L-0.310851394,0.262324892 L7.74578923,0.262324892 L7.74578923,1.45373114 L4.44500798,1.45373114 L4.44500798,17.0689655 L2.96063298,17.0689655 Z M10.2653205,11.7076374 L13.7809455,11.7076374 L12.0133674,1.80529364 L10.2653205,11.7076374 Z M9.23016423,17.0689655 L7.73602361,17.0689655 L11.0563361,0.262324892 L12.9899299,0.262324892 L16.3102424,17.0689655 L14.8063361,17.0689655 L13.9664924,12.6939655 L10.0895392,12.6939655 L9.23016423,17.0689655 Z M18.195008,17.0689655 L18.195008,0.262324892 L19.679383,0.262324892 L19.679383,15.8775593 L24.3766486,15.8775593 L24.3766486,17.0689655 L18.195008,17.0689655 Z M25.7340705,17.0689655 L25.7340705,0.262324892 L27.2184455,0.262324892 L27.2184455,15.8775593 L31.9157111,15.8775593 L31.9157111,17.0689655 L25.7340705,17.0689655 Z M33.2633674,17.0689655 L33.2633674,0.262324892 L34.7477424,0.262324892 L34.7477424,17.0689655 L33.2633674,17.0689655 Z M37.6090705,17.0689655 L37.6090705,0.262324892 L38.7516486,0.262324892 L44.0739142,13.5728718 L44.0739142,0.262324892 L45.3336799,0.262324892 L45.3336799,17.0689655 L44.2203986,17.0689655 L38.8883674,4.04162177 L38.8883674,17.0689655 L37.6090705,17.0689655 Z M48.1852424,17.0689655 L48.1852424,0.262324892 L49.3278205,0.262324892 L54.6500861,13.5728718 L54.6500861,0.262324892 L55.9098517,0.262324892 L55.9098517,17.0689655 L54.7965705,17.0689655 L49.4645392,4.04162177 L49.4645392,17.0689655 L48.1852424,17.0689655 Z" id="TALLINN" fill="#f6d94f" sketch:type="MSShapeGroup"></path>
            </g>
        </g>
    </g>
</svg>