<?xml version="1.0" encoding="UTF-8" standalone="no"?>
<svg width="973px" height="294px" viewBox="0 0 973 294" version="1.1" xmlns="http://www.w3.org/2000/svg" xmlns:xlink="http://www.w3.org/1999/xlink" xmlns:sketch="http://www.bohemiancoding.com/sketch/ns">
    <!-- Generator: Sketch Beta 3.1.1 (8761) - http://www.bohemiancoding.com/sketch -->
    <title>mangudeoo-logo</title>
    <desc>Created with Sketch Beta.</desc>
    <defs></defs>
    <g id="I-Vaade" stroke="none" stroke-width="1" fill="none" fill-rule="evenodd" sketch:type="MSPage">
        <g id="Desktop-HD" sketch:type="MSArtboardGroup" transform="translate(-145.000000, -223.000000)">
            <g id="mangudeoo-logo" sketch:type="MSLayerGroup" transform="translate(146.000000, 224.000000)">
                <path d="M98.4399565,264.406 C97.8065143,263.892393 97.0818357,263.43875 96.518776,262.831286 C89.8168016,255.583429 83.1643557,248.288643 76.4363138,241.061643 C75.1277213,239.656393 74.6611117,238.238107 75.1433619,236.35575 C76.2173461,232.166071 77.166206,227.9425 78.1750212,223.734571 C81.524705,209.7655 84.8926361,195.799036 88.2318929,181.827357 C92.7363704,162.975107 97.2121736,144.115036 101.716651,125.265393 C106.54176,105.073071 111.390329,84.8885714 116.220652,64.69625 C117.951539,57.4614286 119.666785,50.2213929 121.374212,42.9813571 C121.564505,42.1731429 121.647921,41.3414643 121.827788,40.2177857 C120.826793,39.9570714 120.034338,39.5738214 119.241884,39.5712143 C107.289899,39.54775 95.3379147,39.5712143 83.3885369,39.6129286 C82.5517676,39.6155357 81.7176051,39.8736429 81.029421,39.9883571 C79.6295921,41.51875 79.5070745,43.289 79.1108473,44.9523571 C74.6141901,63.8046071 70.1175328,82.6594643 65.6208756,101.514321 C61.7654808,117.673393 57.9335468,133.835071 54.0468709,149.983714 C48.6613093,172.360821 43.2262192,194.7275 37.8328373,217.102 C36.6180881,222.149429 35.5102161,227.217714 34.3111075,232.26775 C33.9618019,233.735571 33.4717315,235.172107 33.078111,236.506964 C32.6062879,236.553893 32.4342419,236.600821 32.2700161,236.577357 C32.1031836,236.553893 31.9181038,236.488714 31.7929794,236.384429 C31.399359,236.048107 30.9927048,235.719607 30.656433,235.328536 C23.7693789,227.327214 16.890145,219.320679 10.2585531,211.603536 C10.0786868,211.045607 10.0056976,210.883964 9.97702327,210.7145 C9.94574218,210.547643 9.92228136,210.362536 9.95877597,210.198286 C10.4801275,207.836214 10.959771,205.463714 11.5488982,203.117286 C27.6065264,139.177107 43.6745815,75.2421429 59.7556705,11.3097857 C59.8781881,10.8274643 60.1779653,10.3868571 60.3943262,9.92017857 C62.2060229,8.88775 64.1558777,9.31792857 66.0171028,9.31532143 C86.8033896,9.27882143 107.589676,9.29185714 128.375963,9.29185714 C160.59549,9.29185714 192.815016,9.29185714 225.034543,9.29967857 C227.091275,9.29967857 229.148007,9.37528571 230.902355,9.40917857 C232.265689,10.7753214 231.70263,11.9615714 231.423706,13.0982857 C229.479065,20.9953214 227.523997,28.8923571 225.555895,36.7841786 C220.780314,55.9258214 215.9917,75.06225 211.218727,94.2038929 C207.240814,110.151786 203.273329,126.102286 199.30845,142.055393 C193.795157,164.218714 188.292292,186.382036 182.778999,208.545357 C179.351112,222.316286 175.918012,236.087214 172.466665,249.852929 C172.219023,250.841036 171.820189,251.792643 171.47349,252.812036 C169.885975,253.229179 168.41055,253.617643 166.992474,253.987857 C166.041007,255.812857 165.136462,257.484036 165.720376,259.689679 C166.89081,260.177214 168.1212,260.688214 169.614872,261.311321 C167.021148,271.659071 164.461312,281.858214 161.958824,291.840964 C160.564209,292.503179 160.001149,291.710607 159.471977,291.103143 C153.004611,283.644107 146.5972,276.132929 140.080306,268.720821 C138.784747,267.245179 138.466723,265.746071 138.800388,263.944536 C139.019355,262.760893 139.212255,261.572036 139.462504,260.11725 C138.221688,259.580179 137.030399,259.066571 135.867785,258.563393 C135.953808,255.121964 135.953808,255.11675 138.542319,254.613571 C139.207042,254.485821 139.876979,254.389357 140.849299,254.227714 C141.448854,252.267143 142.147465,250.340464 142.624501,248.359036 C147.751994,226.983071 152.845599,205.601893 157.947024,184.223321 C162.083949,166.885821 166.192199,149.5405 170.357798,132.208214 C175.250682,111.851643 180.203522,91.5081071 185.104227,71.1515357 C187.249588,62.2377143 189.348029,53.30825 191.412581,44.3735714 C191.712358,43.0804286 191.722785,41.7168929 191.894831,40.1473929 C190.773925,39.9153571 189.96583,39.6155357 189.155128,39.6025 C177.56809,39.4252143 165.983658,39.3835 154.237608,39.6363929 C153.747537,40.7496429 153.200118,41.6230357 152.968116,42.5746429 C146.169692,70.4815 139.392122,98.3961786 132.638012,126.316071 C127.674745,146.836893 122.75058,167.368143 117.810774,187.894179 C112.060266,211.783429 106.328006,235.677893 100.52797,259.556714 C100.134349,261.165321 100.163023,263.045071 98.4399565,264.406 L98.4399565,264.406 Z M675.638699,105.644036 C675.795104,105.002679 675.656946,104.285714 675.656946,103.388857 C674.152847,103.023857 672.71131,102.677107 671.063839,102.278214 C671.957957,98.8446071 675.166876,100.974643 677.296597,98.7012143 C682.903733,75.774 688.761118,51.95775 694.446457,28.2927143 C691.167155,24.4471786 674.434377,10.1339643 671.123794,8.28289286 C669.580594,9.271 669.807382,11.0308214 669.460683,12.46475 C665.414995,29.2808214 661.452723,46.1203571 657.435709,62.94425 C657.164606,64.0861786 656.653682,65.1681429 656.161005,66.5499286 C653.989575,66.6646429 651.945877,66.8627857 649.899572,66.8653929 C636.047261,66.8914643 622.19495,66.8601786 608.340032,66.8914643 C606.314582,66.8966786 604.192681,66.5160357 602.182871,67.7387857 C601.911768,68.547 601.580709,69.3421786 601.382596,70.1660357 C600.295578,74.7076786 599.242448,79.2571429 598.17107,83.7987857 C597.057985,88.5125 595.973573,93.2366429 594.784892,97.9321071 C594.54507,98.8811071 593.898594,99.7284286 593.614458,100.28375 C591.995661,101.180607 590.220459,100.179464 588.974429,101.70725 C590.543697,102.127 591.800154,102.460714 593.49194,102.914357 C589.48014,120.246643 585.311934,137.182643 581.271459,154.147321 C577.189277,171.286679 572.948082,188.386929 568.983203,205.755714 C591.518624,224.999036 613.868966,244.083321 637.05347,263.881964 C650.082045,210.498107 662.870799,158.073679 675.638699,105.644036 L675.638699,105.644036 Z M616.598241,102.76575 C616.024755,102.591071 615.172345,102.147857 615.104569,101.720286 C614.937736,100.682643 615.826641,100.28375 616.739006,100.171643 C617.922474,100.025643 619.111156,99.9422143 620.544873,99.8066429 C621.397282,96.9153214 622.215804,94.1361071 623.003045,91.469 C627.077408,90.5147857 644.759046,90.4443929 649.758807,91.3751429 C650.160248,94.4541786 649.15404,97.2985714 647.936684,100.351536 C646.654159,100.583571 645.335139,100.820821 643.768478,101.102393 C644.38628,102.638 645.986829,101.892357 646.813171,102.739679 C647.662974,104.168393 647.052993,105.688357 646.695867,107.158786 C640.721178,131.851036 634.707388,156.53025 628.732699,181.2225 C626.741136,189.448036 624.885124,197.710071 622.864887,205.927786 C622.429558,207.70325 622.458233,209.744643 620.669997,211.329786 C619.783699,210.816179 618.84266,210.430321 618.097127,209.809821 C612.646396,205.276 607.31297,200.596179 601.78143,196.16925 C599.242448,194.138286 598.835793,192.036929 599.604787,188.952679 C602.623413,176.881607 605.350081,164.740143 608.217515,152.629964 C611.280455,139.682893 614.377284,126.743643 617.466292,113.801786 C618.026745,111.450143 618.647153,109.114143 619.176325,106.752071 C619.400506,105.763964 619.463068,104.73675 619.676822,103.162036 C618.261353,102.997786 617.393302,103.005607 616.598241,102.76575 L616.598241,102.76575 Z M438.713088,195.814679 C437.276764,201.521714 435.598012,207.176607 434.380656,212.927964 C433.736787,215.980929 432.250935,217.748571 429.459098,218.984357 C421.863005,222.352786 414.363363,225.935 406.822013,229.428571 C385.459633,239.320071 364.105072,249.237643 342.716625,259.066571 C340.498274,260.083357 339.038489,261.34 338.564059,263.848071 C337.247647,270.819571 335.759188,277.759786 334.39064,284.720857 C334.242055,285.476929 334.442775,286.303393 334.500124,287.560036 C336.95569,286.530214 339.022849,285.708964 341.053513,284.804286 C366.823921,273.309393 392.591722,261.809286 418.354309,250.29875 C430.050832,245.071429 441.705646,239.752857 453.451697,234.637643 C455.972431,233.540036 457.090731,232.020071 457.679858,229.355571 C460.031153,218.713214 462.643125,208.128214 465.182107,197.527571 C470.661512,174.642071 476.174804,151.759179 481.643782,128.871071 C486.189968,109.854571 490.704873,90.8276429 495.21717,71.8007143 C495.438745,70.86475 495.485666,69.8896786 495.647285,68.71125 C494.130152,68.6043571 492.936257,68.4505357 491.744969,68.4505357 C466.621037,68.4401071 441.499712,68.4401071 416.378387,68.4635714 C415.215773,68.4661786 414.055766,68.6982143 412.814949,68.8285714 C412.317058,70.5545 411.837415,72.0197143 411.472469,73.5136071 C406.808979,92.6839286 402.174164,111.859464 397.510674,131.027179 C395.177626,140.611036 392.847184,150.194893 390.425506,159.755286 C389.789457,162.268571 389.96411,164.3595 391.606367,166.536464 C394.935197,170.963393 397.998138,175.591071 401.170562,180.135321 C403.151698,182.977107 405.169328,185.792821 407.090509,188.676321 C408.143639,190.258857 409.483513,191.080107 411.4073,190.994071 C412.616835,190.939321 413.831585,191.0045 415.046334,191.0045 C421.281698,191.009714 427.51967,190.981036 433.757641,191.030571 C435.449427,191.043607 437.232449,190.69425 439.255294,192.130786 C439.065,193.465643 438.999831,194.667536 438.713088,195.814679 L438.713088,195.814679 Z M461.94712,98.7611786 C459.93731,109.15325 446.562036,162.365036 445.170027,165.613536 C441.54142,166.447821 429.409569,166.60425 423.429667,165.876857 C421.130506,163.39225 419.610767,160.2715 417.8877,157.288929 C417.249044,156.180893 417.186482,155.059821 417.504506,153.797964 C418.727076,148.933036 419.840161,144.042036 421.026236,139.169286 C424.248189,125.893714 427.475355,112.62075 430.731195,99.3556071 C431.015332,98.20325 431.541897,97.10825 431.99026,95.8855 C433.085098,95.6795357 434.083486,95.3301786 435.079268,95.3327857 C443.559051,95.3458214 452.038834,95.4162143 460.518617,95.5152857 C460.961766,95.5205 461.399701,95.9454643 462.082672,96.3026429 C462.04357,97.1030357 462.103526,97.9529643 461.94712,98.7611786 L461.94712,98.7611786 Z M852.833061,211.303714 C857.019515,214.661714 861.250282,217.964964 865.402848,221.369893 C866.14056,221.97475 867.157196,223.061929 867.024251,223.72675 C866.779216,224.978179 867.094633,225.6795 867.960077,226.373 C869.445929,227.564464 870.874432,228.834143 872.425453,229.934357 C873.236155,230.510536 874.25279,231.133643 875.180796,231.141464 C878.314119,231.164929 880.277008,232.893464 882.041783,235.1695 C882.758641,236.095036 883.600624,237.187429 884.619866,237.56025 C887.153635,238.485786 889.053961,240.240393 891.079412,241.835964 C898.964855,248.056607 906.805982,254.334607 914.680997,260.565679 C915.864465,261.501643 917.149597,262.309857 918.559853,263.300571 C918.961294,262.338536 919.300172,261.7415 919.461791,261.10275 C920.991958,255.064607 922.503878,249.023857 923.984516,242.972679 C924.229551,241.971536 924.401597,240.920857 924.401597,239.891036 C924.396384,235.84475 924.365103,235.84475 925.957832,233.360143 C925.757111,233.120286 925.592886,232.729214 925.34785,232.671857 C923.713413,232.272964 922.970487,231.323964 923.377141,229.647571 C923.82029,227.812143 924.318181,225.992357 924.795218,224.159536 C926.239362,223.557286 927.480178,223.038464 928.952996,222.420571 C938.423348,183.276929 947.901519,144.104607 957.35623,104.927071 C957.463107,104.473429 957.251959,103.944179 957.18679,103.4045 C955.693118,102.989964 954.262008,102.591071 952.760516,102.173929 C953.685915,98.78725 956.975643,101.045036 958.440641,99.3321429 C958.597046,99.0505714 958.839475,98.7663929 958.920284,98.4457143 C961.185557,89.3858929 963.453436,80.3260714 965.656146,71.2506071 C965.83862,70.5049643 965.580551,69.6524286 965.515382,68.67475 C964.217216,68.5861071 963.197974,68.4583571 962.178732,68.4583571 C936.546482,68.4453214 910.916839,68.4401071 885.28459,68.45575 C884.127189,68.45575 882.967182,68.6643214 881.611668,68.7920714 C880.675842,72.5411429 879.786937,76.0451429 878.929314,79.5569643 C877.409574,85.7723929 875.921115,91.99825 874.375308,98.2058571 C874.174588,99.0114643 873.700158,99.7492857 873.405594,100.401071 C871.870214,100.687857 870.600723,100.925107 868.322416,101.350071 C870.486025,102.048786 871.674707,102.432036 872.967659,102.849179 C869.286917,120.536036 864.738124,137.701464 860.637694,154.973786 C856.521624,172.295643 852.11881,189.552321 848.11483,207.33825 C849.934347,208.873857 851.357637,210.122679 852.833061,211.303714 L852.833061,211.303714 Z M901.120643,103.646964 C900.242166,102.113964 898.078557,103.560929 896.887269,101.795893 C897.121877,101.420464 897.340844,100.586179 897.760532,100.468857 C899.069125,100.103857 900.453313,100.012607 902.186807,99.7623214 C902.997509,97.7105 903.868166,95.5074643 904.702328,93.3930714 C909.086895,92.6135357 927.717393,92.6031071 932.474726,93.3982857 C933.324529,95.8020714 931.987263,97.9164643 931.463304,100.315036 C929.802799,100.588786 928.306521,100.836464 926.820669,101.084143 C926.799814,101.295321 926.739859,101.605571 926.773747,101.616 C927.873799,101.975786 928.984278,102.3095 930.402354,102.739679 C930.352825,103.618286 930.441455,104.624643 930.219881,105.558 C927.308132,117.842857 924.370316,130.1225 921.401219,142.396929 C918.721472,153.490321 916.000017,164.573286 913.294202,175.661464 C911.039357,184.898571 908.771477,194.135679 906.524452,203.378 C905.953572,205.729643 905.479142,208.107357 904.874374,210.451179 C904.673654,211.2255 904.207044,211.932036 903.769109,212.868 C902.869778,212.492571 902.197234,212.33875 901.675883,211.97375 C895.166808,207.393 888.71769,202.726214 882.1643,198.208036 C879.96159,196.690679 879.554936,195.050786 880.206625,192.480143 C883.100126,181.084321 885.76684,169.631143 888.537823,158.204036 C892.325442,142.574214 896.144343,126.949607 899.929355,111.322393 C900.471561,109.088071 900.424639,109.077643 898.915326,106.131571 C899.30634,105.002679 901.511657,105.589286 901.120643,103.646964 L901.120643,103.646964 Z M861.797702,104.635071 C861.870691,104.330036 861.685611,103.965036 861.5657,103.354964 C860.233647,103.042107 858.79211,102.700571 857.014301,102.278214 C858.072645,99.0010357 861.146012,100.844286 863.030698,99.1939643 C865.720872,90.31925 867.550816,80.8005714 870.014202,71.4461429 C870.220136,70.6692143 870.04027,69.788 870.04027,69.0892857 C869.625795,68.8728929 869.479817,68.766 869.315591,68.7190714 C868.98714,68.6252143 868.650868,68.5105 868.317203,68.5000714 C866.930408,68.4583571 865.546219,68.4348929 864.162031,68.4375 C838.529781,68.474 812.897532,68.5183214 787.267889,68.5626429 C787.09845,68.5626429 786.918583,68.6121786 786.762178,68.6825714 C786.613593,68.7503571 786.488468,68.8702857 785.925409,69.277 C782.977166,79.2806071 781.254099,90.0507143 778.146843,99.8926786 C776.572362,101.277071 774.698103,100.17425 773.48596,101.673357 C774.914464,102.095714 776.014515,102.419 777.29704,102.797036 C776.707913,107.487286 775.798155,111.804714 774.098548,116.004821 C771.903658,116.265536 769.901668,116.502786 767.826689,116.747857 C767.45653,118.31475 767.112437,119.647 766.851762,120.9975 C766.79702,121.279071 767.052482,121.618 767.203674,122.032536 C768.22813,122.454893 769.317755,122.903321 770.23012,123.281357 C771.674264,125.698179 771.666443,127.935107 770.9939,130.419714 C769.549756,135.76175 768.400176,141.184607 767.091583,146.563143 C762.587106,165.055607 758.051347,183.542857 753.575544,202.04575 C753.137609,203.855107 752.407717,205.687929 753.082867,207.990036 C757.605592,211.598321 762.396813,215.292643 767.026414,219.179893 C768.963236,220.809357 772.190402,221.654071 771.515251,225.3145 C771.457903,225.635179 772.083525,226.151393 772.474538,226.474679 C774.077694,227.793893 775.691277,229.107893 777.354389,230.348893 C777.883561,230.742571 778.605633,231.177964 779.205187,231.131036 C782.122149,230.909429 784.032902,232.677071 786.066174,234.303929 C796.74606,242.85275 807.441588,251.380714 818.142328,259.900857 C819.602113,261.063643 821.137493,262.132571 822.680694,263.2745 C824.549739,259.220393 829.849278,237.847036 830.229864,233.10725 C827.365038,231.342214 827.336363,231.334393 827.920277,228.792429 C828.266976,227.282893 828.720552,225.796821 829.158487,224.188214 C830.422765,223.65375 831.676615,223.127107 833.33712,222.425786 C842.87264,182.987536 852.345598,143.812607 861.797702,104.635071 L861.797702,104.635071 Z M835.847428,100.369786 C834.043551,100.635714 832.575946,100.857321 830.516608,101.164964 C831.963358,102.58325 833.660358,101.793286 834.867287,103.125536 C834.825578,103.64175 834.869893,104.478643 834.6796,105.263393 C831.746998,117.543036 828.793541,129.817464 825.827051,142.089286 C820.623962,163.603429 815.426087,185.117571 810.16565,206.616071 C809.686006,208.57925 809.613017,210.724929 808.132378,212.779357 C807.204373,212.377857 806.226838,212.130179 805.455238,211.5905 C799.081715,207.11925 792.781182,202.535893 786.368557,198.119393 C784.350927,196.729786 783.793081,195.251536 784.400455,192.866 C786.879482,183.146571 789.202103,173.388036 791.569039,163.639929 C794.506855,151.545393 797.431638,139.445643 800.37206,127.306786 C799.876776,126.206571 799.384099,125.124607 798.94095,124.139107 C797.663639,123.748036 796.550553,123.409107 795.385333,123.051929 C795.090769,120.314429 796.133472,118.137464 796.959814,115.681536 C798.990479,115.34 800.995076,115.001071 803.289022,114.612607 C804.1675,110.949571 805.788903,107.500321 805.653352,103.412321 C804.138825,103.013429 802.710322,102.638 801.211436,102.244321 C802.228072,100.299393 802.228072,100.299393 806.662167,99.6371786 C807.449408,97.5905714 808.299211,95.3875357 809.107306,93.2913929 C814.518935,92.5275 832.883544,92.6500357 837.395842,93.5964286 C836.835389,96.0627857 836.345318,98.1980357 835.847428,100.369786 L835.847428,100.369786 Z M197.924262,207.653714 C210.063933,218.2335 222.211424,228.808071 234.358916,239.380036 C242.325168,246.317643 250.286206,253.257857 258.275919,260.169393 C259.120508,260.899393 259.868648,262.085643 261.667311,261.360857 C262.261651,258.855393 262.88988,256.180464 263.536356,253.51075 C269.156526,230.307179 274.802763,207.106214 280.402079,183.897429 C285.75636,161.695 291.058505,139.479536 296.391931,117.269286 C299.989257,102.296464 303.610044,87.3288571 307.186516,72.3508214 C307.449798,71.2506071 307.426337,70.08 307.572316,68.5756786 C300.648767,68.328 294.087558,68.4818214 287.531562,68.45575 C280.949498,68.4322857 274.367435,68.4505357 267.785371,68.4505357 C261.031262,68.4505357 254.274545,68.3957857 247.520436,68.4635714 C240.980081,68.5313571 234.424085,68.1507143 228.019281,68.71125 C226.632486,72.2908571 222.800552,87.2923571 222.060232,92.0634286 C221.932501,92.8846786 222.041985,93.7424286 222.041985,94.51675 C223.99966,95.6326071 225.946908,95.2337143 227.815954,95.2389286 C241.326779,95.2702143 254.837605,95.2337143 268.345824,95.2754286 C270.199229,95.2806429 272.162118,94.8113571 273.900825,96.0106429 C274.622897,97.7808929 273.924286,99.4520714 273.530665,101.091964 C272.206432,106.647786 270.803997,112.18275 269.375493,117.709893 C268.994907,119.182929 268.42924,120.609036 267.853147,122.337571 C265.83291,122.413179 263.961257,122.538321 262.084392,122.540929 C248.226867,122.556571 234.37195,122.533107 220.514425,122.569607 C218.647986,122.574821 216.711165,122.186357 214.831693,123.106679 C214.505848,123.875786 214.054879,124.642286 213.851552,125.46875 C207.540591,151.355071 201.253091,177.246607 194.981232,203.14075 C194.863928,203.617857 195.009907,204.16275 195.051615,205.0205 C196.138633,206.019036 197.011897,206.858536 197.924262,207.653714 L197.924262,207.653714 Z M244.215067,210.352107 C237.721633,204.6555 231.259481,198.925 224.664383,193.090214 C225.394276,189.857357 226.032931,186.840893 226.75761,183.847893 C229.771022,171.417036 232.800075,158.986179 235.849981,146.563143 C236.749313,142.8975 236.804055,142.811464 240.218907,142.777571 C246.795757,142.712393 253.372607,142.725429 259.949457,142.767143 C260.942632,142.774964 261.935807,143.106071 262.902914,143.283357 C262.621384,147.629464 248.513611,205.620143 246.292653,211.397571 C245.403749,210.959571 244.702531,210.779679 244.215067,210.352107 L244.215067,210.352107 Z M680.690596,129.267357 C678.563481,138.016929 676.452007,146.7665 674.332713,155.516071 C672.176925,164.429893 670.013316,173.343714 667.86274,182.260143 C665.753873,190.996679 663.65804,199.733214 661.494431,208.722643 C683.498074,226.915286 705.512144,244.828964 727.453224,262.831286 C727.956328,263.243214 728.613231,263.467429 729.403079,263.889786 C729.734137,263.045071 730.044341,262.458464 730.19814,261.83275 C736.634225,235.435429 743.06249,209.0355 749.46208,182.630357 C749.579384,182.155857 749.402125,181.610964 749.352596,180.987857 C746.711951,179.759893 743.917506,180.388214 741.201265,180.323036 C738.258235,180.250036 735.309992,180.216143 732.369569,180.31 C729.671575,180.396036 726.843243,179.611286 724.246912,181.266821 C723.347581,185.008071 722.466496,188.710214 721.572378,192.407143 C720.633946,196.276143 719.791963,200.176429 718.697125,204.001107 C717.675276,207.572893 717.617927,211.478393 715.297912,214.914607 C714.234355,214.262821 713.324597,213.79875 712.521715,213.1965 C709.062548,210.591964 705.632054,207.953536 702.196348,205.317714 C699.446218,203.208536 696.740403,201.039393 693.945959,198.992786 C691.917902,197.506714 690.901266,195.908536 691.954396,193.264893 C692.715569,191.356464 692.963211,189.244679 693.453282,187.224143 C696.133029,176.120321 698.812776,165.0165 701.500343,153.912679 C701.865289,152.410964 702.016481,150.79975 703.976763,149.501393 C707.099659,149.472714 710.725659,149.410143 714.351659,149.410143 C726.997041,149.410143 739.642424,149.446643 752.290413,149.425786 C753.987412,149.423179 755.770434,149.743857 757.707255,148.4455 C758.630048,144.743357 759.706639,140.749214 760.611183,136.721179 C761.539189,132.58625 763.165806,128.553 762.991153,124.2825 C761.614785,123.763679 760.52516,123.354357 759.500705,122.965893 C759.500705,122.196786 759.422502,121.677964 759.513738,121.185214 C760.475632,115.929214 760.483452,115.931821 765.981105,114.333643 C766.674502,111.5075 767.438282,108.509286 768.126466,105.495429 C768.272445,104.861893 768.14732,104.165786 768.14732,103.45925 C766.541558,103.005607 765.110447,102.6015 763.608955,102.179143 C764.50568,98.9801786 767.331405,100.768679 769.197844,99.4494643 C769.463733,98.8028929 769.972051,97.8956071 770.211873,96.9231429 C772.32856,88.3534643 774.416573,79.7785714 776.449844,71.1880357 C776.627104,70.4476071 776.361214,69.6055 776.296045,68.7216786 C775.305477,68.6147857 774.62772,68.4792143 773.949963,68.4792143 C748.828638,68.4661786 723.707313,68.4609643 698.585988,68.4792143 C697.598027,68.4792143 696.607459,68.7295 695.556935,68.8702857 C695.241518,69.9209643 694.962595,70.7213571 694.761874,71.5452143 C692.73903,79.7811786 690.716186,88.01975 688.732443,96.2661429 C688.367497,97.7835 688.145923,99.3295357 686.957241,100.461036 C683.276499,100.948571 682.91416,101.05025 682.812496,101.824571 C683.917762,102.064429 685.041274,102.304286 687.043264,102.734464 C684.999566,111.882929 682.807283,120.567321 680.690596,129.267357 L680.690596,129.267357 Z M733.693802,116.607071 C733.201125,118.145286 732.695414,119.733036 732.124534,121.52675 C733.563464,122.241107 734.749539,122.832929 736.243211,123.575964 C736.026851,124.634464 735.974715,125.846786 735.497679,126.860964 C735.190081,127.515357 734.301177,127.955964 733.586925,128.328786 C733.16463,128.547786 732.572896,128.482607 732.059365,128.482607 C725.151457,128.485214 718.243549,128.485214 711.338247,128.453929 C710.676131,128.451321 710.016621,128.237536 709.067761,128.070679 C709.026053,126.975679 708.786231,125.964107 708.984345,125.049 C709.930598,120.669 711.012403,116.315071 712.013398,111.9455 C712.474794,109.930179 712.899695,107.901821 713.269855,105.865643 C713.392372,105.21125 713.288102,104.51775 713.288102,103.5505 C712.130702,103.224607 710.999369,102.987357 709.941025,102.562393 C709.59954,102.426821 709.242414,101.775036 709.278909,101.397 C709.315403,101.01375 709.776799,100.437571 710.141745,100.359357 C711.473799,100.072571 712.837133,99.9604643 714.440289,99.7492857 C715.204069,97.4941071 715.965242,95.2493571 716.76291,92.8925 C721.236107,91.4585714 725.737977,92.3345714 730.159039,92.2693929 C734.434122,92.2016071 738.758733,91.7531786 743.112018,92.7230357 C744.157328,95.5100714 742.59588,97.7496071 742.074529,100.291571 C740.458339,100.591393 739.003768,100.862536 737.564838,101.131071 C737.567444,102.413786 738.48763,102.0175 739.05069,102.171321 C739.686739,102.351214 740.338428,102.476357 740.943196,102.617143 C740.857173,107.158786 740.137708,110.237821 737.807266,115.989179 C736.368336,116.208179 735.187475,116.382857 733.693802,116.607071 L733.693802,116.607071 Z M545.071414,262.205571 C560.545128,198.314929 575.997988,134.419071 591.424781,70.518 C591.536872,70.0591429 591.299657,69.5168571 591.229274,69.0371429 C587.160125,68.2888929 567.802342,68.2497857 563.008514,69.0162857 C561.428819,73.6335357 560.644185,78.5949286 559.426829,83.439 C558.240754,88.1370714 557.117241,92.8455714 555.980695,97.5540714 C554.805047,102.426821 553.629399,107.304786 552.479819,112.185357 C551.330239,117.071143 550.240614,121.969964 549.072787,126.847929 C547.946667,131.559036 546.729312,136.249286 545.587552,140.955179 C544.40669,145.833143 543.259717,150.718929 542.112743,155.604714 C540.970983,160.487893 539.881359,165.384107 538.705711,170.256857 C537.530063,175.134821 536.244932,179.984107 535.061464,184.862071 C533.919704,189.567964 532.884821,194.299929 531.743061,199.003214 C530.575233,203.810786 529.923544,208.766964 527.879846,213.613643 C526.993548,213.212143 526.28451,213.060929 525.804867,212.649 C518.602395,206.451821 511.452058,200.194679 504.445093,193.689857 C504.718803,192.297643 504.906489,191.114 505.185412,189.951214 C508.686288,175.314714 512.202804,160.680821 515.714107,146.046929 C520.554856,125.859821 525.395606,105.675321 530.236355,85.4882143 C531.203462,81.44975 532.217491,77.4217143 533.098575,73.365 C533.413993,71.9180357 534.094356,70.3615714 532.671067,68.6330357 C528.773964,68.3227857 524.634432,68.4661786 520.507935,68.4818214 C516.222425,68.4948571 511.918668,68.2445714 507.403763,68.6956071 C504.301721,80.2843571 501.788807,91.7505714 499.072565,103.169857 C496.390211,114.443143 493.702644,125.719036 491.017683,136.994929 C488.291015,148.435071 485.509604,159.862179 482.850711,171.320571 C480.197032,182.750286 477.149732,194.093964 474.947022,205.349 C478.922327,209.556929 540.741589,260.685607 544.380623,262.849536 C544.617838,262.638357 545.011458,262.461071 545.071414,262.205571 L545.071414,262.205571 Z M360.909187,237.367321 C364.696807,221.544571 368.463572,205.716607 372.261618,189.899071 C376.015349,174.251 379.805575,158.61075 383.56452,142.960071 C387.281756,127.484071 390.975532,112.00025 394.682342,96.5216429 C396.535746,88.7836429 398.451713,81.0586786 400.198241,73.2972143 C400.511052,71.9023929 401.439058,70.3746071 400.398962,68.8807143 C395.58428,68.30975 323.152907,68.328 318.794408,68.9093929 C318.518092,69.4725357 318.090584,70.0565357 317.931571,70.7083214 C307.045751,115.600714 296.178177,160.498321 285.334065,205.401143 C285.177659,206.045107 285.315818,206.762071 285.315818,207.841429 C291.871813,213.431143 298.576395,219.151214 305.299223,224.850429 C305.78408,225.25975 306.420129,225.491786 307.306426,225.979321 C307.887733,224.05525 308.4534,222.457071 308.849627,220.819786 C310.111298,215.6055 311.297373,210.375571 312.530369,205.153464 C317.305949,184.9455 322.086743,164.740143 326.870144,144.532179 C330.37884,129.713179 333.879716,114.894179 337.424906,100.085607 C337.977539,97.7704643 338.217361,95.3145357 339.711033,93.4165357 C345.568418,92.6031071 363.557653,92.76475 367.287924,93.6642143 C367.850983,95.5700357 367.134125,97.3767857 366.688369,99.2122143 C364.571682,107.956571 362.439354,116.698321 360.353948,125.447893 C355.977202,143.794357 351.64477,162.148643 347.26281,180.4925 C342.354285,201.026357 337.398839,221.549786 332.498134,242.083643 C332.18793,243.384607 332.174896,244.758571 332.028918,246.080393 C333.43396,247.240571 334.599181,248.265179 335.82957,249.20375 C337.177264,250.233571 338.584913,251.182571 339.916967,252.128964 C341.358504,251.544964 342.49505,251.135643 343.587282,250.632464 C348.766909,248.233893 353.930897,245.806643 359.410302,243.246429 C359.968148,241.040786 360.466039,239.210571 360.909187,237.367321 L360.909187,237.367321 Z M876.187005,27.9981071 C873.051075,24.5123571 869.203501,21.5949643 865.488871,18.5576429 C861.842016,15.5750714 858.685233,11.91725 854.008709,9.57342857 C851.839887,18.4950714 849.75448,27.0230357 847.718603,35.5640357 C847.570017,36.1871429 847.802019,36.9015 847.867188,37.7071071 C854.855906,43.3281071 861.826376,48.9334643 869.185253,54.8516786 C871.195064,49.9346071 875.397157,33.6138929 876.187005,27.9981071 L876.187005,27.9981071 Z M810.496708,11.5366071 C808.625056,20.1115 805.906207,28.4960714 804.550693,36.9458214 C808.622449,41.1042143 822.641592,52.2601786 826.218064,54.2520357 C827.967199,51.0947857 832.708891,32.6831429 833.000848,27.9172857 C829.309679,24.0091786 815.123703,12.0788929 811.482062,9.86542857 C811.143184,10.42075 810.627046,10.9343571 810.496708,11.5366071 L810.496708,11.5366071 Z M900.591471,37.6706071 C902.033008,38.8803214 903.610097,40.2099643 905.195006,41.5291786 C906.899825,42.9526786 908.445633,44.43875 909.793326,46.2976429 C910.880345,47.8019643 913.234247,48.3598929 914.967741,49.4288214 C915.841005,49.9685 916.578717,50.7297857 917.397239,51.3659286 C918.744933,52.4113929 920.10566,53.436 921.823514,54.7447857 C922.402214,53.3265 923.124286,52.2940714 923.176421,51.2303571 C923.252017,49.7625357 922.383967,48.1565357 922.725452,46.8164643 C923.069544,45.4529286 924.805645,44.4596071 925.214906,43.0908571 C926.690331,38.1581429 928.11362,33.1941429 928.942569,27.7817143 C923.817684,23.3938929 918.724079,19.0112857 913.607013,14.6599643 C911.766642,13.0956786 909.874136,11.5913571 907.97381,10.0974643 C907.757449,9.92539286 907.345581,10.0036071 907.022343,9.9645 C905.132444,14.162 900.541943,33.7390357 900.591471,37.6706071 L900.591471,37.6706071 Z M310.442356,52.72425 C312.334862,45.3590714 314.180447,37.9834643 316.08338,30.6208929 C316.570844,28.7333214 316.138122,27.2863571 314.620989,26.0218929 C308.377804,20.8180357 302.184147,15.5542143 295.948783,10.3399286 C295.615118,10.0609643 295.054665,10.05575 294.301312,9.83414286 C291.811858,18.9356786 289.616968,27.9355357 287.706214,36.8389286 C291.066325,40.3429286 305.419134,51.88475 309.561272,54.3980357 C309.970533,53.6341429 310.317232,53.2091786 310.442356,52.72425 L310.442356,52.72425 Z M248.192979,21.6575357 C247.100748,26.0114643 246.076292,30.3810357 244.971027,34.72975 C244.465316,36.719 245.364647,37.9730357 246.829645,39.1436429 C252.77566,43.8756071 258.666932,48.6779643 264.61816,53.4047143 C265.194254,53.8609643 266.04145,53.9730714 266.773949,54.2494286 C269.250369,46.8373214 272.99628,31.3013571 273.165719,27.8573214 C268.528297,23.1331786 254.996617,11.8520714 251.258527,9.7455 C250.163688,13.9925357 249.154873,17.8172143 248.192979,21.6575357 L248.192979,21.6575357 Z M946.350498,23.2348571 C945.206131,27.8938214 943.618616,32.4745714 943.271917,37.2586786 C944.111293,38.0303929 944.710847,38.6482857 945.375571,39.1853571 C951.305945,43.96425 957.249353,48.7301071 963.190154,53.4933571 C963.456043,53.7071429 963.771461,53.8661786 964.073844,54.0278214 C964.225036,54.1086429 964.402296,54.1816429 964.566522,54.1816429 C964.725534,54.1816429 964.884546,54.0903929 965.390257,53.9235357 C965.739563,52.8493929 966.221813,51.5875357 966.555478,50.2865714 C967.811935,45.4320714 968.922414,40.5358571 970.277928,35.7074286 C971.093843,32.8056786 971.250249,29.9456429 970.840988,27.1273214 C965.111334,21.4046429 953.474767,11.7503929 949.893082,9.78460714 C948.143947,14.1411429 947.45055,18.7479643 946.350498,23.2348571 L946.350498,23.2348571 Z" id="Shape" stroke-opacity="0.286175272" stroke="#f6d94f" sketch:type="MSShapeGroup"></path>
                <g id="Group" stroke="#f6d94f" stroke-width="2" fill="#f6d94f" sketch:type="MSShapeGroup" fill-opacity="0.399999976">
                    <path d="M88.6567944,256.57675 C88.0207455,256.063143 87.2986736,255.6095 86.7356139,255.002036 C80.0336396,247.754179 73.3811936,240.459393 66.6531517,233.232393 C65.3419525,231.824536 64.8753429,230.408857 65.3575931,228.523893 C66.4315773,224.334214 67.3804371,220.110643 68.3892524,215.902714 C71.7415429,201.933643 75.1068673,187.967179 78.446124,173.9955 C82.9506016,155.14325 87.4264047,136.283179 91.9308822,117.433536 C96.7559909,97.2412143 101.60456,77.0567143 106.434883,56.8643929 C108.16577,49.6269643 109.883623,42.3895357 111.59105,35.1495 C111.781343,34.3412857 111.864759,33.507 112.044626,32.3859286 C111.043631,32.1252143 110.251176,31.7393571 109.458722,31.7393571 C97.5067372,31.7158929 85.5547526,31.7393571 73.6053748,31.7810714 C72.7686055,31.7836786 71.934443,32.0417857 71.246259,32.1565 C69.84643,33.6868929 69.7239124,35.4571429 69.3276852,37.1205 C64.831028,55.9753571 60.3343707,74.8302143 55.8351068,93.6824643 C51.9797119,109.841536 48.147778,126.003214 44.2637088,142.151857 C38.8781472,164.528964 33.4430571,186.895643 28.0496752,209.270143 C26.8349261,214.317571 25.7244472,219.385857 24.5253386,224.435893 C24.1760331,225.906321 23.6859626,227.34025 23.2923422,228.677714 C22.820519,228.724643 22.6458663,228.771571 22.4842473,228.748107 C22.3174148,228.722036 22.132335,228.659464 22.0072106,228.552571 C21.6135902,228.21625 21.2069359,227.88775 20.8706642,227.499286 C13.98361,219.497964 7.10698292,211.491429 0.472784277,203.771679 C0.29031123,203.21375 0.219928769,203.054714 0.188647675,202.88525 C0.159973339,202.715786 0.133905761,202.533286 0.17040037,202.369036 C0.691751933,200.006964 1.17139537,197.634464 1.76052264,195.288036 C17.8181508,131.350464 33.886206,67.4128929 49.9646882,3.48053571 C50.0872058,2.99821429 50.3843762,2.55760714 50.6033438,2.09092857 C52.4150405,1.0585 54.3648953,1.48607143 56.2235137,1.48607143 C77.015014,1.45217857 97.8013008,1.46260714 118.590194,1.46260714 C150.809721,1.46260714 183.029248,1.46260714 215.248774,1.47042857 C217.305506,1.47042857 219.364845,1.54603571 221.116586,1.58253571 C222.47992,2.94867857 221.916861,4.13232143 221.637938,5.26903571 C219.693296,13.1686786 217.738228,21.0631071 215.770126,28.9575357 C210.994545,48.0991786 206.205931,67.2356071 201.432958,86.37725 C197.455045,102.325143 193.48756,118.275643 189.522681,134.226143 C184.011995,156.392071 178.506523,178.555393 172.99323,200.718714 C169.56795,214.489643 166.132243,228.257964 162.680896,242.023679 C162.433254,243.014393 162.03442,243.963393 161.687721,244.985393 C160.100206,245.399929 158.624781,245.791 157.206705,246.161214 C156.255238,247.988821 155.350693,249.657393 155.934607,251.865643 C157.105041,252.353179 158.335431,252.864179 159.829103,253.487286 C157.235379,263.835036 154.67815,274.034179 152.173055,284.016929 C150.781047,284.679143 150.21538,283.883964 149.688815,283.2765 C143.221449,275.820071 136.814038,268.308893 130.297144,260.891571 C129.001585,259.418536 128.683561,257.916821 129.017226,256.117893 C129.236193,254.93425 129.426487,253.745393 129.676735,252.290607 C128.438525,251.753536 127.24463,251.237321 126.084623,250.73675 C126.170646,247.295321 126.170646,247.290107 128.759157,246.786929 C129.42388,246.659179 130.093817,246.562714 131.066137,246.401071 C131.665692,244.4405 132.364303,242.513821 132.841339,240.532393 C137.968832,219.156429 143.062437,197.77525 148.163862,176.394071 C152.300786,159.056571 156.409037,141.71125 160.574636,124.378964 C165.46752,104.022393 170.42036,83.6788571 175.321065,63.3222857 C177.466426,54.4084643 179.56226,45.479 181.629419,36.5443214 C181.929196,35.2511786 181.939623,33.8876429 182.111669,32.3181429 C180.988156,32.0861071 180.182668,31.7836786 179.371966,31.77325 C167.787535,31.5959643 156.203103,31.55425 144.457052,31.8045357 C143.966982,32.9177857 143.419563,33.7911786 143.187561,34.7453929 C136.389137,62.65225 129.611566,90.5669286 122.857457,118.486821 C117.89419,139.007643 112.970025,159.536286 108.030218,180.064929 C102.279711,203.954179 96.5474503,227.848643 90.7448074,251.727464 C90.351187,253.336071 90.3772546,255.215821 88.6567944,256.57675" id="Shape"></path>
                    <path d="M627.272914,256.052714 C604.085804,236.254071 581.738069,217.169786 559.200041,197.926464 C563.167526,180.557679 567.408721,163.454821 571.490904,146.315464 C575.531379,129.350786 579.699584,112.417393 583.708778,95.0825 C582.016992,94.6288571 580.763142,94.2951429 579.191267,93.8727857 C580.437297,92.345 582.212499,93.34875 583.831295,92.4518929 C584.115432,91.8965714 584.761908,91.04925 585.00173,90.10025 C586.190411,85.4047857 587.272216,80.68325 588.387908,75.9695357 C589.459286,71.4252857 590.509809,66.8784286 591.599434,62.3367857 C591.797547,61.5129286 592.128606,60.7203571 592.399708,59.9095357 C594.409519,58.6893929 596.53142,59.0700357 598.55687,59.0622143 C612.409181,59.0283214 626.264099,59.0622143 640.11641,59.0361429 C642.160108,59.0309286 644.203806,58.8327857 646.375236,58.7180714 C646.87052,57.3362857 647.381444,56.2543214 647.64994,55.115 C651.666954,38.2911071 655.629226,21.4515714 659.677521,4.6355 C660.02422,3.20157143 659.797432,1.44175 661.340632,0.451035714 C664.651215,2.30471429 681.383993,16.6205357 684.663295,20.4634643 C678.977956,44.1285 673.117964,67.9473571 667.513435,90.8719643 C665.381107,93.148 662.172188,91.0179643 661.27807,94.4515714 C662.925541,94.8478571 664.367078,95.1972143 665.871177,95.5596071 C665.871177,96.4590714 666.009336,97.1734286 665.85293,97.8173929 C653.08503,150.244429 640.296277,202.668857 627.272914,256.052714 M609.891053,95.3353929 C609.677299,96.9127143 609.614737,97.9347143 609.390556,98.9254286 C608.861384,101.284893 608.240976,103.6235 607.680523,105.975143 C604.594121,118.917 601.497293,131.85625 598.431746,144.800714 C595.564312,156.908286 592.837644,169.052357 589.819018,181.123429 C589.050025,184.207679 589.456679,186.306429 591.995661,188.337393 C597.529808,192.766929 602.863234,197.444143 608.313965,201.977964 C609.059498,202.598464 610.000537,202.984321 610.886835,203.497929 C612.672464,201.915393 612.64379,199.874 613.079118,198.098536 C615.099355,189.880821 616.957974,181.618786 618.94693,173.390643 C624.921619,148.701 630.935409,124.019179 636.910098,99.3269286 C637.267224,97.8565 637.874599,96.3391429 637.027402,94.9078214 C636.203667,94.0605 634.600511,94.80875 633.982709,93.2705357 C635.551977,92.9889643 636.86839,92.7517143 638.153522,92.5196786 C639.368271,89.4667143 640.374479,86.6223214 639.975645,83.5432857 C634.973277,82.6099286 617.291639,82.6829286 613.217276,83.6371429 C612.430035,86.3068571 611.611514,89.0834643 610.759104,91.9747857 C609.325387,92.10775 608.136705,92.1937857 606.953237,92.3371786 C606.040872,92.4492857 605.151968,92.8481786 605.3188,93.8858214 C605.386576,94.3133929 606.236379,94.7566071 606.809866,94.9312857 C607.607534,95.1763571 608.475584,95.1685357 609.891053,95.3353929" id="Shape"></path>
                    <path d="M429.469525,184.309357 C427.446681,182.872821 425.661052,183.222179 423.971872,183.209143 C417.736508,183.162214 411.498536,183.188286 405.260565,183.185679 C404.048422,183.185679 402.831067,183.1205 401.621531,183.172643 C399.70035,183.261286 398.360477,182.437429 397.30474,180.854893 C395.38356,177.971393 393.365929,175.155679 391.384793,172.313893 C388.214976,167.769643 385.152035,163.141964 381.823205,158.715036 C380.180948,156.532857 380.003688,154.444536 380.639737,151.93125 C383.064022,142.370857 385.394464,132.787 387.724905,123.20575 C392.388395,104.035429 397.025817,84.8598929 401.6867,65.6895714 C402.051646,64.1956786 402.531289,62.7304643 403.02918,61.0045357 C404.26739,60.8741786 405.430004,60.6421429 406.592618,60.6395357 C431.713943,60.6160714 456.835268,60.6134643 481.9592,60.6238929 C483.150488,60.6238929 484.341777,60.7777143 485.861517,60.8846071 C485.702504,62.0630357 485.655583,63.0381071 485.434008,63.9740714 C480.92171,83.001 476.409413,102.025321 471.86062,121.041821 C466.386429,143.932536 460.87835,166.812821 455.398945,189.700929 C452.859963,200.301571 450.247991,210.883964 447.896696,221.528929 C447.307568,224.193429 446.189269,225.710786 443.668535,226.808393 C431.922484,231.923607 420.26767,237.244786 408.568541,242.4695 C382.805953,253.980036 357.038152,265.480143 331.270351,276.975036 C329.239687,277.879714 327.172528,278.698357 324.716962,279.728179 C324.657006,278.474143 324.458893,277.647679 324.607478,276.891607 C325.973419,269.927929 327.461878,262.990321 328.780897,256.018821 C329.255327,253.51075 330.717718,252.254107 332.933463,251.237321 C354.324517,241.408393 375.679077,231.490821 397.041457,221.599321 C404.582808,218.10575 412.08245,214.523536 419.675936,211.155107 C422.47038,209.916714 423.953625,208.149071 424.600101,205.096107 C425.81485,199.34475 427.493602,193.692464 428.932533,187.982821 C429.216669,186.838286 429.279231,185.636393 429.469525,184.309357 M452.296903,88.4733929 C451.616539,88.1162143 451.178604,87.69125 450.732848,87.6860357 C442.253065,87.5869643 433.773282,87.5165714 425.293499,87.5035357 C424.29511,87.5009286 423.299329,87.8528929 422.201884,88.05625 C421.750915,89.279 421.22435,90.3713929 420.94282,91.5263571 C417.684373,104.7915 414.459813,118.064464 411.235254,131.337429 C410.051786,136.212786 408.936093,141.103786 407.716131,145.968714 C407.398106,147.230571 407.460668,148.351643 408.099324,149.459679 C409.822391,152.44225 411.342131,155.563 413.641291,158.047607 C419.6238,158.775 431.755651,158.615964 435.381651,157.784286 C436.77366,154.535786 450.148934,101.324 452.158745,90.9293214 C452.317757,90.1211071 452.257802,89.2737857 452.296903,88.4733929" id="Shape"></path>
                    <path d="M838.329061,199.509 C842.333041,181.723071 846.738462,164.469 850.851926,147.144536 C854.954962,129.874821 859.503755,112.709393 863.184497,95.0199286 C861.891545,94.6027857 860.702863,94.2195357 858.539254,93.5208214 C860.817561,93.0958571 862.087052,92.8586071 863.622432,92.5718214 C863.916996,91.9200357 864.391426,91.1822143 864.592146,90.3766071 C866.137953,84.169 867.623805,77.9431429 869.146152,71.7277143 C870.003775,68.2185 870.89268,64.7145 871.828506,60.9628214 C873.18402,60.8350714 874.34142,60.6265 875.501427,60.6265 C901.133677,60.6108571 926.76332,60.6134643 952.395569,60.6265 C953.414812,60.6265 954.431447,60.75425 955.729613,60.8428929 C955.794782,61.8231786 956.052851,62.6757143 955.870378,63.4213571 C953.665061,72.4968214 951.397181,81.5566429 949.134515,90.6164643 C949.053706,90.93975 948.811277,91.2213214 948.654872,91.5055 C947.189874,93.2183929 943.900146,90.9632143 942.97214,94.3472857 C944.473632,94.7644286 945.907349,95.1633214 947.401021,95.5778571 C947.468797,96.1149286 947.679945,96.6467857 947.570461,97.1004286 C938.11575,136.277964 928.634972,175.447679 919.164621,214.593929 C917.691803,215.209214 916.453593,215.728036 915.009449,216.332893 C914.532412,218.165714 914.034521,219.9855 913.591373,221.820929 C913.187325,223.494714 913.927644,224.448929 915.562082,224.845214 C915.807117,224.905179 915.971343,225.29625 916.172063,225.5335 C914.579334,228.0155 914.610615,228.0155 914.613222,232.061786 C914.613222,233.091607 914.441176,234.142286 914.198747,235.143429 C912.718109,241.194607 911.206189,247.235357 909.676022,253.2735 C909.514403,253.91225 909.175525,254.509286 908.776691,255.471321 C907.363828,254.480607 906.078697,253.672393 904.897835,252.736429 C897.020213,246.505357 889.181692,240.227357 881.29625,234.006714 C879.270799,232.408536 877.367866,230.653929 874.836704,229.728393 C873.817462,229.355571 872.972872,228.263179 872.258621,227.337643 C870.493846,225.061607 868.530957,223.335679 865.397634,223.309607 C864.469628,223.299179 863.452993,222.676071 862.642291,222.099893 C861.09127,220.999679 859.662767,219.73 858.176915,218.541143 C857.311471,217.845036 856.996054,217.148929 857.241089,215.894893 C857.371427,215.230071 856.354791,214.142893 855.619686,213.538036 C851.469727,210.135714 847.236352,206.832464 843.049899,203.471857 C841.574474,202.293429 840.151185,201.044607 838.329061,199.509 M889.134771,98.2971071 C890.644084,101.240571 890.688398,101.253607 890.1488,103.487929 C886.36118,119.11775 882.544887,134.73975 878.754661,150.369571 C875.986284,161.796679 873.319571,173.249857 870.423463,184.645679 C869.771774,187.216321 870.178428,188.856214 872.381138,190.373571 C878.937134,194.889143 885.386253,199.555929 891.895327,204.136679 C892.416679,204.501679 893.089222,204.6555 893.988554,205.030929 C894.426489,204.094964 894.895706,203.388429 895.093819,202.614107 C895.698587,200.270286 896.17041,197.892571 896.743897,195.540929 C898.990922,186.301214 901.258801,177.064107 903.516254,167.824393 C906.222068,156.738821 908.940917,145.65325 911.620664,134.559857 C914.587154,122.285429 917.527577,110.005786 920.439325,97.7209286 C920.6609,96.7875714 920.57227,95.7812143 920.621798,94.9052143 C919.198509,94.4750357 918.090637,94.1439286 916.990585,93.7815357 C916.95409,93.7711071 917.016652,93.4608571 917.037506,93.2496786 C918.523358,93.002 920.019637,92.7543214 921.680142,92.4805714 C922.2041,90.082 923.53876,87.9676071 922.688957,85.5638214 C917.931624,84.77125 899.303733,84.7816786 894.919166,85.5586071 C894.082397,87.6756071 893.21174,89.8760357 892.401038,91.9304643 C890.670151,92.1833571 889.285963,92.2746071 887.97737,92.637 C887.557682,92.7543214 887.336108,93.5886071 887.104106,93.9614286 C888.295395,95.7238571 890.459004,94.2795 891.337481,95.8125 C891.728495,97.7600357 889.520571,97.1734286 889.134771,98.2971071" id="Shape"></path>
                    <path d="M823.553958,214.591321 C821.890846,215.292643 820.636996,215.819286 819.372718,216.35375 C818.934783,217.962357 818.481207,219.448429 818.134508,220.957964 C817.550594,223.502536 817.579269,223.50775 820.444096,225.272786 C820.066116,230.009964 814.76397,251.385929 812.894925,255.440036 C811.354331,254.298107 809.818951,253.229179 808.35656,252.066393 C797.653212,243.548857 786.957685,235.015679 776.277798,226.469464 C774.244527,224.84 772.333773,223.074964 769.416811,223.296571 C768.817257,223.340893 768.095185,222.908107 767.566013,222.514429 C765.902902,221.273429 764.291926,219.959429 762.686163,218.640214 C762.295149,218.316929 761.669527,217.800714 761.726876,217.480036 C762.402026,213.819607 759.17486,212.974893 757.238039,211.345429 C752.608437,207.455571 747.814609,203.76125 743.294491,200.155571 C742.616734,197.853464 743.346626,196.020643 743.787169,194.211286 C748.262972,175.708393 752.79873,157.221143 757.303208,138.728679 C758.614407,133.347536 759.76138,127.927286 761.205524,122.582643 C761.878068,120.098036 761.885888,117.861107 760.441744,115.444286 C759.531986,115.06625 758.439754,114.617821 757.415298,114.192857 C757.266713,113.780929 757.011251,113.439393 757.063386,113.157821 C757.324062,111.809929 757.668154,110.477679 758.038314,108.908179 C760.113293,108.665714 762.112676,108.425857 764.307566,108.165143 C766.007172,103.965036 766.919537,99.6476071 767.508665,94.9573571 C766.22614,94.5793214 765.128695,94.2560357 763.697585,93.8362857 C764.909727,92.3371786 766.786593,93.44 768.358468,92.0556071 C771.465723,82.21625 773.18879,71.4461429 776.137033,61.4425357 C776.700093,61.0358214 776.825217,60.9132857 776.973802,60.8481071 C777.127601,60.7803214 777.310074,60.7307857 777.479513,60.7307857 C803.111763,60.6864643 828.741406,60.6421429 854.373655,60.6056429 C855.757844,60.6056429 857.147246,60.6291071 858.528827,60.6682143 C858.865099,60.6786429 859.201371,60.7933571 859.529822,60.8872143 C859.694048,60.9341429 859.83742,61.0410357 860.251894,61.2574286 C860.251894,61.9561429 860.429154,62.8373571 860.22322,63.6142857 C857.759834,72.9687143 855.92989,82.4873929 853.239716,91.3621071 C851.35503,93.0124286 848.279056,91.1691786 847.223319,94.4463571 C849.003734,94.8687143 850.442665,95.21025 851.774718,95.5231071 C851.892022,96.1331786 852.079708,96.4981786 852.006719,96.8032143 C842.562436,135.985964 833.086871,175.160893 823.553958,214.591321 M827.617893,85.7697857 C823.102989,84.8233929 804.740987,84.7008571 799.326751,85.46475 C798.518656,87.5635 797.668853,89.7639286 796.881612,91.8105357 C792.450123,92.47275 792.450123,92.47275 791.433488,94.4150714 C792.929767,94.80875 794.360877,95.1841786 795.872796,95.5830714 C796.010955,99.6710714 794.386944,103.117714 793.508467,106.78075 C791.21452,107.169214 789.207317,107.508143 787.179259,107.849679 C786.35031,110.305607 785.307607,112.482571 785.604777,115.220071 C786.769998,115.57725 787.880477,115.916179 789.157788,116.30725 C789.603544,117.290143 790.093614,118.374714 790.591505,119.474929 C787.651082,131.613786 784.7263,143.713536 781.788484,155.808071 C779.421548,165.553571 777.098927,175.312107 774.6199,185.031536 C774.012525,187.417071 774.570372,188.895321 776.588002,190.287536 C783.003233,194.704036 789.30116,199.284786 795.67729,203.758643 C796.446283,204.298321 797.423817,204.546 798.35443,204.9475 C799.835068,202.890464 799.905451,200.747393 800.385094,198.784214 C805.645532,177.285714 810.843407,155.771571 816.046495,134.257429 C819.015592,121.985607 821.969049,109.711179 824.901651,97.4315357 C825.089338,96.6467857 825.04763,95.8072857 825.086731,95.2910714 C823.877196,93.9588214 822.180196,94.7487857 820.733446,93.3305 C822.792784,93.0228571 824.262996,92.8038571 826.066872,92.5353214 C826.562156,90.3713929 827.04962,88.2335357 827.617893,85.7697857" id="Shape"></path>
                    <path d="M185.273666,197.196464 C185.234565,196.338714 185.088586,195.793821 185.203284,195.316714 C191.472536,169.422571 197.760036,143.528429 204.073603,117.644714 C204.274324,116.81825 204.7279,116.05175 205.053744,115.282643 C206.935824,114.359714 208.870038,114.750786 210.739083,114.742964 C224.594001,114.706464 238.451526,114.732536 252.30905,114.714286 C254.183309,114.714286 256.054961,114.586536 258.075198,114.510929 C258.651292,112.782393 259.216958,111.356286 259.597545,109.88325 C261.023441,104.3535 262.425877,98.8185357 263.752717,93.2653214 C264.143731,91.6254286 264.844948,89.95425 264.122876,88.184 C262.384169,86.9873214 260.42128,87.454 258.567876,87.4487857 C245.05705,87.4070714 231.548831,87.4435714 218.038005,87.4122857 C216.16896,87.4070714 214.221712,87.8059643 212.264036,86.6901071 C212.264036,85.9157857 212.154553,85.0580357 212.282284,84.2341786 C213.022603,79.4657143 216.857144,64.4642143 218.241332,60.882 C224.646136,60.3214643 231.202132,60.7047143 237.742487,60.6369286 C244.496597,60.5691429 251.253313,60.6238929 258.007423,60.6238929 C264.589486,60.6238929 271.17155,60.6030357 277.753613,60.6265 C284.309609,60.6525714 290.870818,60.49875 297.794367,60.7464286 C297.648389,62.25075 297.67185,63.4213571 297.408567,64.5215714 C293.832095,79.5022143 290.211309,94.4672143 286.613983,109.440036 C281.280556,131.647679 275.978411,153.863143 270.62413,176.068179 C265.024815,199.276964 259.378577,222.477929 253.758407,245.6815 C253.111931,248.351214 252.483703,251.026143 251.889362,253.531607 C250.088092,254.253786 249.34256,253.070143 248.49797,252.337536 C240.508257,245.428607 232.547219,238.485786 224.580967,231.548179 C212.433476,220.973607 200.288591,210.399036 188.146313,199.821857 C187.228734,199.031893 186.355471,198.189786 185.273666,197.196464 M236.506884,203.565714 C238.727842,197.790893 252.835615,139.800214 253.117145,135.4515 C252.147431,135.276821 251.156863,134.945714 250.163688,134.937893 C243.586838,134.896179 237.009988,134.880536 230.433138,134.948321 C227.018286,134.982214 226.963544,135.06825 226.064212,138.733893 C223.014306,151.156929 219.985253,163.587786 216.971841,176.018643 C216.247162,179.01425 215.608507,182.030714 214.878615,185.260964 C221.473712,191.093143 227.935864,196.82625 234.429298,202.522857 C234.916762,202.950429 235.620587,203.130321 236.506884,203.565714" id="Shape"></path>
                    <path d="M677.262709,94.9026071 C675.263326,94.4724286 674.139813,94.2325714 673.031941,93.9927143 C673.133605,93.221 673.495944,93.1193214 677.176686,92.6317857 C678.362761,91.5002857 678.584335,89.95425 678.949281,88.4368929 C680.933024,80.1905 682.958475,71.9519286 684.978712,63.7159643 C685.179433,62.8921071 685.460962,62.0917143 685.773773,61.0410357 C686.826904,60.90025 687.814865,60.6499643 688.802826,60.6499643 C713.924151,60.6317143 739.045476,60.6369286 764.166801,60.6499643 C764.841951,60.6499643 765.519708,60.7855357 766.510276,60.8924286 C766.575445,61.7788571 766.841335,62.6209643 766.664075,63.3613929 C764.630804,71.9493214 762.542791,80.5242143 760.426104,89.0965 C760.186282,90.0689643 759.677964,90.97625 759.412075,91.6228214 C757.545636,92.9420357 754.719911,91.1561429 753.823186,94.3525 C755.324679,94.7748571 756.755789,95.1815714 758.361551,95.6326071 C758.361551,96.3391429 758.486676,97.03525 758.340697,97.6687857 C757.652513,100.682643 756.888733,103.680857 756.195336,106.507 C750.695077,108.105179 750.687256,108.105179 749.725363,113.358571 C749.636733,113.851321 749.714936,114.370143 749.714936,115.13925 C750.739392,115.527714 751.829016,115.937036 753.205385,116.455857 C753.380037,120.726357 751.75342,124.757 750.825415,128.894536 C749.92087,132.922571 748.846885,136.916714 747.921486,140.618857 C745.987272,141.917214 744.201643,141.596536 742.504644,141.599143 C729.859262,141.62 717.211273,141.5835 704.56589,141.5835 C700.93989,141.5835 697.316497,141.646071 694.190994,141.67475 C692.228106,142.973107 692.076914,144.584321 691.714574,146.086036 C689.027007,157.189857 686.34726,168.293679 683.667513,179.3975 C683.177443,181.415429 682.929801,183.529821 682.168627,185.43825 C681.115497,188.079286 682.129526,189.677464 684.16019,191.166143 C686.954635,193.21275 689.660449,195.381893 692.407972,197.491071 C695.843679,200.124286 699.274172,202.765321 702.735946,205.369857 C703.538828,205.974714 704.448586,206.436179 705.512144,207.087964 C707.829551,203.65175 707.889507,199.74625 708.911356,196.174464 C710.003587,192.349786 710.84557,188.452107 711.784003,184.5805 C712.680728,180.883571 713.561812,177.181429 714.458536,173.440179 C717.054867,171.78725 719.883199,172.569393 722.581194,172.483357 C725.521617,172.3895 728.472466,172.423393 731.412889,172.496393 C734.129131,172.561571 736.923575,171.930643 739.564221,173.161214 C739.613749,173.784321 739.788402,174.329214 739.676311,174.803714 C733.274114,201.208857 726.848456,227.608786 720.409764,254.006107 C720.258573,254.631821 719.948368,255.218429 719.61731,256.063143 C718.824856,255.640786 718.170559,255.416571 717.664848,255.004643 C695.723768,236.999714 673.707091,219.088643 651.703449,200.896 C653.867058,191.906571 655.962891,183.167429 658.071758,174.4335 C660.22494,165.517071 662.385942,156.60325 664.541731,147.689429 C666.658418,138.939857 668.769892,130.190286 670.897007,121.440714 C673.024121,112.738071 675.213797,104.053679 677.262709,94.9026071 M728.024104,108.159929 C730.354546,102.408571 731.074011,99.3295357 731.160034,94.7878929 C730.552659,94.6471071 729.90097,94.5219643 729.264921,94.3420714 C728.701861,94.1856429 727.784282,94.5819286 727.781676,93.3018214 C729.220606,93.0358929 730.675177,92.7621429 732.293973,92.4623214 C732.815325,89.9229643 734.376773,87.6834286 733.328856,84.8963929 C728.975571,83.9239286 724.653566,84.3749643 720.375877,84.4401429 C715.954815,84.5079286 711.452945,83.6293214 706.979748,85.0658571 C706.18208,87.4227143 705.420907,89.6674643 704.657127,91.9200357 C703.053971,92.1312143 701.68803,92.2433214 700.358583,92.5301071 C699.993637,92.6083214 699.532241,93.1845 699.495747,93.56775 C699.459252,93.9483929 699.813771,94.5975714 700.155256,94.7331429 C701.2136,95.1607143 702.34754,95.3953571 703.502333,95.72125 C703.502333,96.6885 703.603997,97.3846071 703.484086,98.039 C703.11132,100.075179 702.689025,102.103536 702.227629,104.118857 C701.226634,108.488429 700.147436,112.83975 699.198576,117.222357 C699.000463,118.137464 699.240284,119.149036 699.281992,120.244036 C700.233459,120.410893 700.892969,120.624679 701.552478,120.627286 C708.460387,120.658571 715.365688,120.658571 722.273596,120.655964 C722.787128,120.655964 723.378862,120.718536 723.801156,120.502143 C724.515408,120.129321 725.404312,119.686107 725.71191,119.034321 C726.188947,118.02275 726.238475,116.807821 726.457443,115.749321 C724.96377,115.006286 723.777696,114.417071 722.341372,113.702714 C722.909645,111.909 723.417963,110.32125 723.908033,108.783036 C725.404312,108.556214 726.585174,108.378929 728.024104,108.159929" id="Shape"></path>
                    <path d="M534.597461,255.022893 C530.958427,252.858964 469.139165,201.730286 465.163859,197.522357 C467.36657,186.267321 470.41387,174.921036 473.067549,163.493929 C475.726442,152.038143 478.507853,140.608429 481.231915,129.168286 C483.919482,117.892393 486.607049,106.619107 489.286796,95.3432143 C492.003038,83.9265357 494.515952,72.4577143 497.617994,60.8689643 C502.132899,60.4205357 506.436656,60.6708214 510.722166,60.6551786 C514.85127,60.6421429 518.990802,60.49875 522.887905,60.809 C524.308588,62.5349286 523.628224,64.0913929 523.312806,65.5409643 C522.431722,69.5976786 521.417693,73.6231071 520.450586,77.6615714 C515.612443,97.8486786 510.769087,118.033179 505.928338,138.220286 C502.417035,152.856786 498.900519,167.488071 495.399643,182.127179 C495.12072,183.287357 494.93564,184.471 494.659324,185.865821 C501.668896,192.370643 508.819233,198.627786 516.019098,204.824964 C516.501348,205.236893 517.207779,205.388107 518.094077,205.789607 C520.135168,200.945536 520.786858,195.98675 521.957292,191.179179 C523.101659,186.473286 524.133935,181.741321 525.275695,177.035429 C526.459163,172.157464 527.744294,167.308179 528.919942,162.430214 C530.09559,157.554857 531.182608,152.658643 532.324368,147.778071 C533.468734,142.892286 534.615708,138.0065 535.799176,133.131143 C536.938329,128.422643 538.155685,123.735 539.284411,119.023893 C540.452239,114.143321 541.541863,109.2445 542.691444,104.361321 C543.841024,99.48075 545.014065,94.6053929 546.189713,89.7274286 C547.326259,85.0189286 548.452378,80.3104286 549.635846,75.6149643 C550.855809,70.7708929 551.640443,65.8121071 553.220138,61.19225 C558.013966,60.42575 577.37175,60.4648571 581.438292,61.2131071 C581.511281,61.6954286 581.748496,62.2351071 581.636405,62.6939643 C566.207006,126.595036 550.756752,190.488286 535.280431,254.381536 C535.225689,254.631821 534.834676,254.809107 534.597461,255.022893" id="Shape"></path>
                    <path d="M349.616713,235.414571 C344.137308,237.977393 338.970714,240.402036 333.793693,242.800607 C332.701461,243.306393 331.564915,243.713107 330.123378,244.299714 C328.793931,243.350714 327.383675,242.401714 326.035981,241.3745 C324.805592,240.435929 323.640371,239.411321 322.235328,238.251143 C322.381307,236.929321 322.394341,235.557964 322.704545,234.257 C327.60525,213.720536 332.560696,193.197107 337.469221,172.66325 C341.853788,154.319393 346.186219,135.965107 350.560359,117.618643 C352.648372,108.866464 354.778093,100.124714 356.897387,91.3803571 C357.343143,89.5449286 358.057394,87.7407857 357.496941,85.8323571 C353.766671,84.9328929 335.777435,84.7686429 329.92005,85.5846786 C328.426378,87.4852857 328.189163,89.9412143 327.633924,92.2563571 C324.088733,107.064929 320.587858,121.883929 317.079161,136.702929 C312.295761,156.910893 307.514967,177.11625 302.741994,197.324214 C301.508997,202.546321 300.320315,207.77625 299.061251,212.993143 C298.665024,214.633036 298.099358,216.228607 297.515444,218.152679 C296.631753,217.662536 295.993098,217.433107 295.510847,217.023786 C288.788019,211.324571 282.083438,205.601893 275.527442,200.014786 C275.527442,198.938036 275.391891,198.218464 275.548296,197.5745 C286.392408,152.671679 297.259982,107.774071 308.145802,62.8816786 C308.304815,62.2298929 308.732323,61.6458929 309.008639,61.08275 C313.367138,60.5013571 385.801118,60.4831071 390.613193,61.0566786 C391.653289,62.5479643 390.72789,64.0783571 390.412472,65.4731786 C388.665945,73.2346429 386.749978,80.9596071 384.89918,88.6976071 C381.19237,104.176214 377.498594,119.660036 373.781357,135.136036 C370.025019,150.784107 366.232187,166.424357 362.478456,182.072429 C358.683016,197.892571 354.913644,213.720536 351.126025,229.540679 C350.682876,231.381321 350.184986,233.214143 349.616713,235.414571" id="Shape"></path>
                    <path d="M859.402091,47.0224286 C852.043214,41.1042143 845.072743,35.4988571 838.084026,29.8778571 C838.018857,29.0696429 837.786855,28.3552857 837.935441,27.7321786 C839.968712,19.1911786 842.054118,10.6632143 844.22294,1.74157143 C848.899464,4.08539286 852.058854,7.74321429 855.705709,10.7257857 C859.420338,13.7631071 863.267913,16.6805 866.403843,20.16625 C865.611388,25.7846429 861.409295,42.10275 859.402091,47.0224286" id="Shape"></path>
                    <path d="M801.696293,2.03357143 C805.337934,4.24703571 819.526517,16.1773214 823.215079,20.0854286 C822.923122,24.8538929 818.18143,43.2655357 816.432295,46.4201786 C812.855824,44.4283214 798.83668,33.2775714 794.762318,29.1165714 C796.117832,20.6668214 798.839287,12.2796429 800.710939,3.70735714 C800.841277,3.10771429 801.357415,2.5915 801.696293,2.03357143" id="Shape"></path>
                    <path d="M897.239181,2.13525 C897.562419,2.17175 897.974287,2.09614286 898.193254,2.26821429 C900.093581,3.76210714 901.98348,5.26642857 903.823851,6.83071429 C908.943523,11.1820357 914.037128,15.5646429 919.159407,19.9524643 C918.330458,25.3622857 916.907169,30.3288929 915.431744,35.2616071 C915.022483,36.6303571 913.286382,37.6236786 912.94229,38.9872143 C912.600805,40.3298929 913.468855,41.9332857 913.395866,43.4011071 C913.343731,44.4674286 912.619052,45.49725 912.042958,46.9155357 C910.325105,45.60675 908.961771,44.5821429 907.616684,43.5366786 C906.798162,42.9005357 906.060449,42.13925 905.184579,41.5995714 C903.451085,40.5306429 901.097182,39.9727143 900.010164,38.471 C898.662471,36.6121071 897.116663,35.1260357 895.411844,33.7025357 C893.826935,32.3807143 892.249846,31.0510714 890.808309,29.8439643 C890.758781,25.9097857 895.349281,6.33275 897.239181,2.13525" id="Shape"></path>
                    <path d="M299.77811,46.5687857 C295.635972,44.0555 281.280556,32.5136786 277.923052,29.0096786 C279.831199,20.1062857 282.028696,11.1038214 284.51815,2.00489286 C285.271503,2.2265 285.831956,2.23171429 286.165621,2.51067857 C292.400985,7.72235714 298.594642,12.9861786 304.837827,18.1926429 C306.35496,19.4571071 306.787682,20.9040714 306.300218,22.7916429 C304.397285,30.1516071 302.5517,37.5298214 300.659194,44.895 C300.53407,45.3799286 300.187371,45.8075 299.77811,46.5687857" id="Shape"></path>
                    <path d="M241.477971,1.91625 C245.216062,4.02282143 258.747742,15.3039286 263.382557,20.0280714 C263.213118,23.4721071 259.467207,39.0080714 256.990787,46.4201786 C256.258288,46.1438214 255.408485,46.0317143 254.834998,45.5754643 C248.88377,40.8487143 242.992498,36.0463571 237.046483,31.3117857 C235.578878,30.1437857 234.679547,28.8871429 235.187865,26.8978929 C236.29313,22.5491786 237.317586,18.1796071 238.409817,13.8282857 C239.371711,9.98796429 240.380526,6.16067857 241.477971,1.91625" id="Shape"></path>
                    <path d="M940.10992,1.95535714 C943.691605,3.92114286 955.328172,13.5753929 961.057826,19.3006786 C961.46448,22.119 961.310681,24.9790357 960.494766,27.8807857 C959.136645,32.7066071 958.026166,37.6028214 956.772316,42.4573214 C956.436044,43.7556786 955.953794,45.0201429 955.604488,46.0916786 C955.098777,46.2585357 954.939765,46.3497857 954.78336,46.3497857 C954.619134,46.3497857 954.441874,46.2767857 954.290682,46.1985714 C953.988298,46.0369286 953.672881,45.8752857 953.406992,45.6615 C947.463584,40.89825 941.525389,36.135 935.592409,31.3535 C934.927685,30.8190357 934.328131,30.2011429 933.488755,29.4294286 C933.838061,24.6453214 935.422969,20.0645714 936.567336,15.4056071 C937.667388,10.9213214 938.358179,6.31189286 940.10992,1.95535714" id="Shape"></path>
                </g>
            </g>
        </g>
    </g>
</svg>