<?xml version="1.0" encoding="UTF-8" standalone="no"?>
<svg width="221px" height="32px" viewBox="0 0 221 32" version="1.1" xmlns="http://www.w3.org/2000/svg" xmlns:xlink="http://www.w3.org/1999/xlink" xmlns:sketch="http://www.bohemiancoding.com/sketch/ns">
    <!-- Generator: Sketch Beta 3.1.1 (8761) - http://www.bohemiancoding.com/sketch -->
    <title>Group + Group + KORRALDAJA + Line</title>
    <desc>Created with Sketch Beta.</desc>
    <defs>
        <linearGradient x1="77.3312928%" y1="150.135579%" x2="-73.1805679%" y2="44.9017498%" id="linearGradient-1">
            <stop stop-color="#FF0007" offset="0%"></stop>
            <stop stop-color="#FF00FF" offset="100%"></stop>
        </linearGradient>
        <linearGradient x1="-22.8178677%" y1="111.444649%" x2="29.2800857%" y2="-62.60509%" id="linearGradient-2">
            <stop stop-color="#FF0007" offset="0%"></stop>
            <stop stop-color="#FF00FF" offset="100%"></stop>
        </linearGradient>
        <linearGradient x1="178.029348%" y1="48.7231328%" x2="17.8613805%" y2="145.906167%" id="linearGradient-3">
            <stop stop-color="#FF0007" offset="0%"></stop>
            <stop stop-color="#FF00FF" offset="100%"></stop>
        </linearGradient>
        <linearGradient x1="131.111997%" y1="-1.44397606%" x2="62.7823878%" y2="172.436623%" id="linearGradient-4">
            <stop stop-color="#FF0007" offset="0%"></stop>
            <stop stop-color="#FF00FF" offset="100%"></stop>
        </linearGradient>
        <linearGradient x1="-4.73956125%" y1="-28.3117641%" x2="168.88285%" y2="34.6075551%" id="linearGradient-5">
            <stop stop-color="#FF0007" offset="0%"></stop>
            <stop stop-color="#FF00FF" offset="100%"></stop>
        </linearGradient>
        <linearGradient x1="-28.2019629%" y1="-6.45243996%" x2="145.697456%" y2="13.377604%" id="linearGradient-6">
            <stop stop-color="#FF0007" offset="0%"></stop>
            <stop stop-color="#FF00FF" offset="100%"></stop>
        </linearGradient>
    </defs>
    <g id="I-Vaade" stroke="none" stroke-width="1" fill="none" fill-rule="evenodd" sketch:type="MSPage">
        <g id="Desktop-HD" sketch:type="MSArtboardGroup" transform="translate(-525.000000, -15.000000)">
            <g id="Group-+-Group-+-KORRALDAJA-+-Line" sketch:type="MSLayerGroup" transform="translate(526.000000, 16.000000)">
                <g id="Group-+-Group" transform="translate(112.000000, 1.000000)" sketch:type="MSShapeGroup">
                    <g id="Group" transform="translate(14.065116, 14.000000) rotate(166.000000) translate(-14.065116, -14.000000) translate(2.511628, 2.592593)">
                        <path d="M22.8490754,10.071392 L7.36400925,16.6143712 L9.42868474,-3.73034936e-14 L22.8490754,10.071392 L22.8490754,10.071392 Z" id="Shape" stroke="url(#linearGradient-1)"></path>
                        <path d="M17.1712178,22.7805296 L5.6778576,10.5509821 L22.0576165,6.81703066 L17.1712178,22.7805296 L17.1712178,22.7805296 Z" id="Shape" stroke="url(#linearGradient-2)"></path>
                        <path d="M15.5538887,0.616615838 L16.7582827,17.3337563 L1.65174039,9.96862272 L15.5538887,0.616615838 L15.5538887,0.616615838 Z" id="Shape" stroke="url(#linearGradient-3)"></path>
                        <path d="M7.1575417,1.23323168 L17.3088629,14.5932415 L0.619402647,16.6143712 L7.1575417,1.23323168 L7.1575417,1.23323168 Z" id="Shape" stroke="url(#linearGradient-4)"></path>
                        <path d="M-0.103233775,14.3877029 L12.9730443,3.83672077 L15.5883,20.3825791 L-0.103233775,14.3877029 L-0.103233775,14.3877029 Z" id="Shape" stroke="url(#linearGradient-5)"></path>
                        <path d="M3.54435959,18.327193 L13.4203907,4.79590096 L20.2338198,20.1085276 L3.54435959,18.327193 L3.54435959,18.327193 Z" id="Shape" stroke="url(#linearGradient-6)"></path>
                    </g>
                    <g id="Group" transform="translate(36.920930, 8.296296)" fill="#FFFFFF">
                        <path d="M35.7190512,0.039459653 L31.4431234,11.3898053 L30.9741506,11.3898053 L26.6982228,0.039459653 L28.2706608,0.039459653 L31.2776036,7.95773532 L34.312133,0.039459653 L35.7190512,0.039459653 L35.7190512,0.039459653 Z" id="Shape"></path>
                        <path d="M19.4287786,5.04047586 L19.4287786,6.21718556 L15.5181536,6.21718556 L15.5181536,10.1150364 L20.5803738,10.1150364 L20.5803738,11.3898053 L14.1266428,11.3898053 L14.1266428,0.039459653 L20.4124328,0.039459653 L20.2444918,1.31422849 L15.494162,1.31422849 L15.494162,5.04047586 L19.4287786,5.04047586 L19.4287786,5.04047586 Z" id="Shape"></path>
                        <path d="M46.0834072,5.04047586 L46.0834072,6.21718556 L42.1727822,6.21718556 L42.1727822,10.1150364 L47.2350024,10.1150364 L47.2350024,11.3898053 L40.7572798,11.3898053 L40.7572798,0.039459653 L47.0430698,0.039459653 L46.8751289,1.31422849 L42.124799,1.31422849 L42.124799,5.04047586 L46.0834072,5.04047586 L46.0834072,5.04047586 Z" id="Shape"></path>
                        <path d="M1.26716402,0.039459653 L1.26716402,10.1150364 L6.32938421,10.1150364 L6.32938421,11.3898053 L-0.124346747,11.3898053 L-0.124346747,0.039459653 L1.26716402,0.039459653 L1.26716402,0.039459653 Z" id="Shape"></path>
                        <path d="M56.2798223,0.039459653 L56.2798223,10.1150364 L61.3420425,10.1150364 L61.1741016,11.3898053 L54.8883116,11.3898053 L54.8883116,0.039459653 L56.2798223,0.039459653 L56.2798223,0.039459653 Z" id="Shape"></path>
                        <path d="M69.4991746,11.3898053 L69.4991746,1.53486156 L66.9560687,3.10380782 L66.3802711,2.12321641 L69.6671155,0.039459653 L70.8427022,0.039459653 L70.8427022,11.3898053 L69.4991746,11.3898053 L69.4991746,11.3898053 Z" id="Shape"></path>
                    </g>
                </g>
                <path d="M94.5,0 L94.5,30.5" id="Line" stroke="#494949" stroke-linecap="square" opacity="0.521338619" sketch:type="MSShapeGroup"></path>
                <path d="M-0.14453125,20 L-0.14453125,9.91601562 L0.74609375,9.91601562 L0.74609375,15.21875 L3.43554687,9.91601562 L4.35546875,9.91601562 L2.26953125,14.0761719 L4.83007812,20 L3.88671875,20 L1.73046875,14.6738281 L0.74609375,16.4433594 L0.74609375,20 L-0.14453125,20 Z M7.21054685,17.0761719 L7.21054685,12.8515625 C7.21054685,12.496092 7.23691377,12.1699234 7.28964841,11.8730469 C7.34238305,11.5761704 7.43124935,11.2958998 7.55624998,11.0322266 C7.6812506,10.7685534 7.83945214,10.5458993 8.03085935,10.3642578 C8.22226656,10.1826163 8.46640474,10.039063 8.76328123,9.93359375 C9.06015771,9.82812447 9.39999806,9.77539062 9.78281248,9.77539062 C10.1656269,9.77539062 10.5054672,9.82812447 10.8023437,9.93359375 C11.0992202,10.039063 11.3433584,10.1826163 11.5347656,10.3642578 C11.7261728,10.5458993 11.8843744,10.7685534 12.009375,11.0322266 C12.1343756,11.2958998 12.2232419,11.5761704 12.2759765,11.8730469 C12.3287112,12.1699234 12.3550781,12.496092 12.3550781,12.8515625 L12.3550781,17.0761719 C12.3550781,19.1308696 11.4976648,20.1582031 9.78281248,20.1582031 C8.06796015,20.1582031 7.21054685,19.1308696 7.21054685,17.0761719 L7.21054685,17.0761719 Z M11.4644531,17.2753906 L11.4644531,12.6523438 C11.4644531,11.2109303 10.9039118,10.4902344 9.78281248,10.4902344 C8.66171312,10.4902344 8.10117185,11.2109303 8.10117185,12.6523438 L8.10117185,17.2753906 C8.10117185,18.7207104 8.66171312,19.4433594 9.78281248,19.4433594 C10.9039118,19.4433594 11.4644531,18.7207104 11.4644531,17.2753906 L11.4644531,17.2753906 Z M16.6691406,14.3632812 L18.4621093,14.3632812 C18.7160168,14.3632812 18.9308584,14.3125005 19.1066406,14.2109375 C19.2824227,14.1093745 19.4142573,13.9648447 19.5021484,13.7773438 C19.5900395,13.5898428 19.6515623,13.3945323 19.6867187,13.1914062 C19.7218751,12.9882802 19.7394531,12.7558607 19.7394531,12.4941406 C19.7394531,12.2792958 19.728711,12.0859384 19.7072265,11.9140625 C19.685742,11.7421866 19.6466799,11.5742196 19.590039,11.4101562 C19.5333981,11.2460929 19.4582035,11.108399 19.3644531,10.9970703 C19.2707026,10.8857416 19.147657,10.7968753 18.9953125,10.7304688 C18.8429679,10.6640622 18.6652353,10.6308594 18.4621093,10.6308594 L16.6691406,10.6308594 L16.6691406,14.3632812 Z M15.7785156,20 L15.7785156,9.91601562 L18.4679687,9.91601562 C18.8078142,9.91601562 19.1066393,9.96289016 19.3644531,10.0566406 C19.6222669,10.1503911 19.8302726,10.2744133 19.9884765,10.4287109 C20.1466804,10.5830086 20.2746088,10.7744129 20.3722656,11.0029297 C20.4699223,11.2314465 20.5373045,11.4677722 20.574414,11.7119141 C20.6115236,11.9560559 20.6300781,12.226561 20.6300781,12.5234375 C20.6300781,13.8086002 20.1613328,14.6230452 19.2238281,14.9667969 L20.7824218,20 L19.8332031,20 L18.3625,15.078125 L16.6691406,15.078125 L16.6691406,20 L15.7785156,20 Z M24.8210937,14.3632812 L26.6140624,14.3632812 C26.8679699,14.3632812 27.0828115,14.3125005 27.2585937,14.2109375 C27.4343758,14.1093745 27.5662104,13.9648447 27.6541015,13.7773438 C27.7419926,13.5898428 27.8035154,13.3945323 27.8386718,13.1914062 C27.8738282,12.9882802 27.8914062,12.7558607 27.8914062,12.4941406 C27.8914062,12.2792958 27.8806641,12.0859384 27.8591796,11.9140625 C27.8376951,11.7421866 27.798633,11.5742196 27.7419921,11.4101562 C27.6853512,11.2460929 27.6101566,11.108399 27.5164062,10.9970703 C27.4226557,10.8857416 27.2996101,10.7968753 27.1472656,10.7304688 C26.994921,10.6640622 26.8171884,10.6308594 26.6140624,10.6308594 L24.8210937,10.6308594 L24.8210937,14.3632812 Z M23.9304687,20 L23.9304687,9.91601562 L26.6199218,9.91601562 C26.9597673,9.91601562 27.2585924,9.96289016 27.5164062,10.0566406 C27.77422,10.1503911 27.9822257,10.2744133 28.1404296,10.4287109 C28.2986335,10.5830086 28.4265619,10.7744129 28.5242187,11.0029297 C28.6218754,11.2314465 28.6892576,11.4677722 28.7263671,11.7119141 C28.7634767,11.9560559 28.7820312,12.226561 28.7820312,12.5234375 C28.7820312,13.8086002 28.3132859,14.6230452 27.3757812,14.9667969 L28.9343749,20 L27.9851562,20 L26.5144531,15.078125 L24.8210937,15.078125 L24.8210937,20 L23.9304687,20 Z M33.0199218,16.7832031 L35.1292968,16.7832031 L34.0687499,10.8417969 L33.0199218,16.7832031 Z M32.398828,20 L31.5023437,20 L33.4945312,9.91601562 L34.6546874,9.91601562 L36.6468749,20 L35.7445312,20 L35.2406249,17.375 L32.914453,17.375 L32.398828,20 Z M39.6777343,20 L39.6777343,9.91601562 L40.5683593,9.91601562 L40.5683593,19.2851562 L43.3867186,19.2851562 L43.3867186,20 L39.6777343,20 Z M46.1011717,20 L46.1011717,9.91601562 L48.3687499,9.91601562 C48.7515643,9.91601562 49.0914046,9.96777292 49.3882811,10.0712891 C49.6851576,10.1748052 49.9302723,10.3154288 50.1236327,10.4931641 C50.316993,10.6708993 50.4751946,10.8886706 50.598242,11.1464844 C50.7212895,11.4042982 50.8091793,11.6777329 50.8619139,11.9667969 C50.9146486,12.2558608 50.9410155,12.574217 50.9410155,12.921875 L50.9410155,17.0234375 C50.9410155,19.0078224 50.0836022,20 48.3687499,20 L46.1011717,20 Z M46.9917967,19.2851562 L48.3687499,19.2851562 C49.4898492,19.2851562 50.0503905,18.5976631 50.0503905,17.2226562 L50.0503905,12.7226562 C50.0503905,11.328118 49.4898492,10.6308594 48.3687499,10.6308594 L46.9917967,10.6308594 L46.9917967,19.2851562 Z M55.1964842,16.7832031 L57.3058592,16.7832031 L56.2453123,10.8417969 L55.1964842,16.7832031 Z M54.5753905,20 L53.6789061,20 L55.6710936,9.91601562 L56.8312498,9.91601562 L58.8234373,20 L57.9210936,20 L57.4171873,17.375 L55.0910155,17.375 L54.5753905,20 Z M61.0691404,20 L61.0691404,19.3261719 C61.2683602,19.3261719 61.4226555,19.3251953 61.5320311,19.3232422 C61.6414066,19.3212891 61.7576164,19.310547 61.8806639,19.2910156 C62.0037114,19.2714843 62.0935542,19.2490236 62.1501951,19.2236328 C62.206836,19.1982421 62.2673823,19.1523441 62.3318357,19.0859375 C62.3962892,19.0195309 62.4392575,18.9501957 62.460742,18.8779297 C62.4822265,18.8056637 62.5037106,18.7021491 62.5251951,18.5673828 C62.5466796,18.4326165 62.5593748,18.293946 62.5632811,18.1513672 C62.5671873,18.0087883 62.5691404,17.8242199 62.5691404,17.5976562 L62.5691404,9.91601562 L63.4597654,9.91601562 L63.4597654,17.5976562 C63.4597654,17.9023453 63.4529296,18.1542959 63.4392576,18.3535156 C63.4255857,18.5527354 63.3962891,18.7519521 63.351367,18.9511719 C63.3064449,19.1503916 63.2410159,19.3076166 63.1550779,19.4228516 C63.06914,19.5380865 62.9548833,19.6435542 62.8123045,19.7392578 C62.6697257,19.8349614 62.4929696,19.9023436 62.2820311,19.9414062 C62.0710925,19.9804689 61.821095,20 61.5320311,20 L61.0691404,20 Z M68.0082029,16.7832031 L70.1175779,16.7832031 L69.057031,10.8417969 L68.0082029,16.7832031 Z M67.3871092,20 L66.4906248,20 L68.4828123,9.91601562 L69.6429685,9.91601562 L71.635156,20 L70.7328123,20 L70.228906,17.375 L67.9027342,17.375 L67.3871092,20 Z" id="KORRALDAJA" opacity="0.277460354" fill="#FFFFFF" sketch:type="MSShapeGroup"></path>
            </g>
        </g>
    </g>
</svg>