<?xml version="1.0" encoding="UTF-8" standalone="no"?>
<svg width="150px" height="45px" viewBox="0 0 150 45" version="1.1" xmlns="http://www.w3.org/2000/svg" xmlns:xlink="http://www.w3.org/1999/xlink" xmlns:sketch="http://www.bohemiancoding.com/sketch/ns">
    <!-- Generator: Sketch Beta 3.1.1 (8761) - http://www.bohemiancoding.com/sketch -->
    <title>header-logo</title>
    <desc>Created with Sketch Beta.</desc>
    <defs></defs>
    <g id="Page-1" stroke="none" stroke-width="1" fill="none" fill-rule="evenodd" sketch:type="MSPage">
        <g id="header-logo" sketch:type="MSLayerGroup" fill="#F300A9">
            <g id="I-Vaade" sketch:type="MSShapeGroup">
                <g id="Desktop-HD">
                    <g id="mangudeoo-logo">
                        <path d="M13.7522272,40.8931497 C13.6533671,40.8117134 13.5402678,40.7397849 13.4523921,40.6434669 C12.4064274,39.4942643 11.3681924,38.3376208 10.3181593,37.1917252 C10.1139297,36.9689122 10.0411068,36.7440322 10.1163707,36.4455703 C10.2839855,35.781265 10.4320723,35.1115858 10.5895162,34.4443868 C11.1122952,32.2294849 11.6379219,30.0149964 12.1590736,27.7996809 C12.8620791,24.810514 13.5606094,21.8201071 14.2636149,18.8313535 C15.0166607,15.6297081 15.7733679,12.4293029 16.5272275,9.22765754 C16.7973639,8.08052186 17.0650591,6.93255941 17.3315341,5.78459694 C17.3612328,5.65644847 17.3742514,5.52457953 17.4023229,5.34641178 C17.2460994,5.30507356 17.1224225,5.24430637 16.9987456,5.243893 C15.1334214,5.24017255 13.2680973,5.243893 11.40318,5.25050711 C11.2725869,5.25092049 11.1424007,5.29184534 11.0349971,5.31003414 C10.8165284,5.55268952 10.7974073,5.83337605 10.7355689,6.09711391 C10.0337839,9.08628081 9.33199887,12.0758611 8.63021388,15.0654413 C8.02850954,17.6275845 7.43046668,20.1901408 6.82388035,22.7506304 C5.9833657,26.29869 5.13512122,29.8450962 4.29338607,33.3927425 C4.10380241,34.1930506 3.93089887,34.9966655 3.74375621,35.7973869 C3.68924073,36.0301211 3.61275635,36.2578947 3.55132472,36.4695464 C3.47768816,36.4769874 3.45083726,36.4844281 3.42520684,36.4807078 C3.3991696,36.4769874 3.37028454,36.4666527 3.35075661,36.4501176 C3.289325,36.3967912 3.22585923,36.344705 3.17337791,36.2826977 C2.0985281,35.0140276 1.02489877,33.7445309 -0.010081532,32.5209194 C-0.0381529332,32.4324556 -0.0495442228,32.4068259 -0.0540193725,32.3799561 C-0.0589013545,32.3534996 -0.0625628413,32.3241495 -0.0568671949,32.2981064 C0.0244991754,31.923582 0.0993562505,31.5474042 0.191300244,31.1753603 C2.69738462,21.037161 5.2050963,10.8997887 7.71484216,0.762829626 C7.73396325,0.686353918 7.78074893,0.616492312 7.81451597,0.542496899 C8.09726413,0.378797537 8.40157437,0.447005604 8.69205233,0.446592223 C11.9361297,0.440804871 15.180207,0.442871782 18.4242845,0.442871782 C23.4527265,0.442871782 28.4811684,0.442871782 33.5096105,0.444111929 C33.8306009,0.444111929 34.1515912,0.456100013 34.4253891,0.461473982 C34.6381621,0.678086266 34.5502865,0.866175181 34.5067554,1.04640983 C34.2032588,2.29854461 33.898135,3.55067938 33.590977,4.8019874 C32.8456608,7.83703971 32.0983107,10.8712653 31.3534016,13.9063176 C30.7325761,16.4349768 30.113378,18.9640492 29.4945867,21.4935351 C28.6341372,25.0076973 27.7753153,28.5218598 26.9148658,32.036022 C26.3798818,34.219507 25.8440842,36.4029919 25.3054389,38.5856502 C25.2667899,38.742322 25.2045446,38.8932065 25.1504359,39.054839 C24.9026754,39.1209801 24.6724085,39.182574 24.451092,39.2412743 C24.3025983,39.5306418 24.1614276,39.7956199 24.252558,40.1453413 C24.4352255,40.2226437 24.6272502,40.3036666 24.8603648,40.4024649 C24.4555671,42.043179 24.0560582,43.6603303 23.6654995,45.2431708 C23.4478446,45.34817 23.3599688,45.2225018 23.2773819,45.1261837 C22.2680321,43.9434971 21.2680393,42.752543 20.2509597,41.5772972 C20.0487642,41.343323 19.9991307,41.1056281 20.0512052,40.8199811 C20.085379,40.6323055 20.1154845,40.4438033 20.1545404,40.2131359 C19.9608886,40.1279793 19.7749663,40.0465428 19.5935193,39.9667601 C19.6069447,39.4210955 19.6069447,39.4202688 20.0109289,39.340486 C20.114671,39.3202302 20.2192268,39.3049351 20.370975,39.2793054 C20.4645464,38.9684421 20.5735773,38.6629525 20.6480275,38.3487821 C21.4482658,34.9594611 22.2432154,31.5693135 23.0393853,28.1795792 C23.6850276,25.4305873 24.3261946,22.6803554 24.9763119,19.9321903 C25.7399353,16.7045019 26.5129159,13.4788804 27.2777598,10.2511919 C27.6125824,8.8378381 27.9400822,7.42200396 28.262293,6.00534306 C28.3090786,5.80030548 28.310706,5.58410658 28.3375569,5.33525047 C28.1626191,5.29845944 28.0365012,5.25092049 27.9099765,5.24885358 C26.1016089,5.22074359 24.293648,5.21412947 22.4604636,5.25422756 C22.3839792,5.43074177 22.2985445,5.56922481 22.2623364,5.72010933 C21.2013189,10.1449527 20.1435561,14.5710362 19.0894546,18.9979465 C18.3148467,22.2516781 17.5463413,25.5070631 16.7753949,28.7616215 C15.8779238,32.5494428 14.9833005,36.3380909 14.0780996,40.1242587 C14.0166679,40.3793155 14.021143,40.6773641 13.7522272,40.8931497 L13.7522272,40.8931497 L13.7522272,40.8931497 Z M103.834569,15.7202389 C103.858979,15.6185469 103.837417,15.5048666 103.837417,15.3626632 C103.602675,15.3047897 103.377697,15.2498098 103.120579,15.1865623 C103.260122,14.642138 103.760932,14.9798713 104.093314,14.619402 C104.968409,10.9841186 105.882561,7.20787197 106.769861,3.45560147 C106.258066,2.84586269 103.646613,0.576394245 103.129936,0.28289286 C102.889092,0.439564724 102.924486,0.718597725 102.870377,0.945957955 C102.238974,3.61227333 101.62059,6.28230915 100.993662,8.94986468 C100.951351,9.1309261 100.871612,9.30247973 100.794721,9.52157231 C100.45583,9.53976113 100.136874,9.57117817 99.8175108,9.57159156 C97.6556062,9.57572538 95.4937017,9.57076479 93.3313902,9.57572538 C93.015282,9.57655214 92.6841208,9.51619833 92.3704534,9.7100746 C92.3281429,9.83822309 92.2764751,9.96430468 92.245556,10.0949335 C92.0759071,10.8150453 91.9115471,11.5363973 91.7443391,12.2565091 C91.570622,13.0039042 91.4013798,13.7529528 91.2158645,14.4974542 C91.178436,14.6479253 91.0775416,14.7822746 91.0331971,14.870325 C90.7805544,15.0125284 90.5035019,14.8537896 90.3090363,15.0960317 C90.5539491,15.1625862 90.750042,15.2154991 91.0140759,15.2874276 C90.3879617,18.0355927 89.7374375,20.7209237 89.106848,23.4108018 C88.4697494,26.1283767 87.8078339,28.8397507 87.1890426,31.593703 C90.7061041,34.6448773 94.1942807,37.6708351 97.8126434,40.8100598 C99.8459891,32.3456453 101.841906,24.0333555 103.834569,15.7202389 L103.834569,15.7202389 L103.834569,15.7202389 Z M94.6202336,15.2638649 C94.5307307,15.2361682 94.3976967,15.1658932 94.387119,15.0980986 C94.3610817,14.9335725 94.4998114,14.870325 94.6422026,14.8525496 C94.8269042,14.8294002 95.0124196,14.8161719 95.2361772,14.794676 C95.3692111,14.3362351 95.4969563,13.8955697 95.6198195,13.4726797 C96.2556979,13.3213818 99.0152384,13.3102204 99.7955419,13.4577979 C99.8581941,13.9460023 99.701157,14.3970023 99.5111665,14.881073 C99.3110052,14.9178639 99.1051482,14.9554816 98.8606423,15.000127 C98.9570615,15.2436091 99.2068563,15.1253818 99.3358219,15.2597311 C99.4684491,15.4862645 99.3732505,15.7272663 99.3175145,15.960414 C98.3850558,19.875557 97.4464947,23.7886332 96.5140361,27.7037763 C96.2032165,29.0079973 95.9135521,30.3180054 95.5982575,31.6209863 C95.5303165,31.9024996 95.5347917,32.2261779 95.2557051,32.4775143 C95.1173822,32.396078 94.9705159,32.3348973 94.854162,32.2365124 C94.0034765,31.5176407 93.1710985,30.7756197 92.3078013,30.0736966 C91.9115471,29.7516719 91.8480812,29.4184858 91.9680966,28.9294547 C92.439208,27.0154948 92.8647541,25.0903738 93.3122692,23.1702133 C93.7902966,21.1173572 94.273613,19.0657412 94.7557087,17.0137119 C94.8431776,16.6408411 94.9400035,16.2704506 95.0225904,15.8959262 C95.0575779,15.7392544 95.0673419,15.5763818 95.1007021,15.326699 C94.8797924,15.3006559 94.7443173,15.301896 94.6202336,15.2638649 L94.6202336,15.2638649 L94.6202336,15.2638649 Z M66.8580264,30.0174767 C66.6338619,30.9223703 66.3718622,31.8189964 66.1818717,32.7309175 C66.0813842,33.2149882 65.8494901,33.4952612 65.4137732,33.6912045 C64.228265,34.2252944 63.0578097,34.7932815 61.8808452,35.3472136 C58.546858,36.9155858 55.2140911,38.4880919 51.8760357,40.0465428 C51.5298217,40.2077619 51.3019958,40.4070122 51.2279524,40.8046858 C51.0225024,41.9100699 50.7902013,43.0104935 50.5766146,44.114224 C50.5534252,44.2341049 50.5847512,44.3651471 50.5937015,44.5643973 C50.9769372,44.4011112 51.2995549,44.2708958 51.6164769,44.1274523 C55.6384168,42.30485 59.65995,40.481421 63.6806693,38.6563384 C65.5061241,37.8275071 67.3250694,36.9842073 69.1582538,36.1731514 C69.5516601,35.9991175 69.7261912,35.7581156 69.8181351,35.3356389 C70.1850974,33.6482127 70.592743,31.9698808 70.9889973,30.2890687 C71.8441579,26.6603995 72.7046072,23.0321438 73.5581405,19.403061 C74.2676553,16.3878511 74.9722882,13.3709876 75.6765141,10.3541241 C75.7110949,10.2057199 75.7184177,10.0511149 75.7436413,9.86426617 C75.5068652,9.84731749 75.3205362,9.82292795 75.1346141,9.82292795 C71.2135684,9.82127441 67.2929296,9.82127441 63.3722908,9.82499486 C63.1908438,9.82540825 63.0098037,9.86219926 62.8161516,9.88286837 C62.7384467,10.1565274 62.6635897,10.3888482 62.6066333,10.6257162 C61.878811,13.6653158 61.155464,16.705742 60.4276417,19.7449283 C60.0635272,21.2645213 59.6998194,22.7841144 59.3218726,24.299987 C59.2226056,24.6984874 59.2498634,25.03002 59.5061674,25.3751941 C60.0256918,26.0771172 60.5037193,26.8108706 60.9988337,27.5313958 C61.3080259,27.9819825 61.6229137,28.4284353 61.9227489,28.885636 C62.0871089,29.1365591 62.2962206,29.2667745 62.5964625,29.2531328 C62.7852323,29.2444518 62.9748161,29.2547864 63.1643998,29.2547864 C64.1375415,29.2556131 65.1110903,29.251066 66.0846389,29.2589202 C66.3486728,29.2609871 66.6269458,29.2055939 66.9426474,29.4333676 C66.9129486,29.6450193 66.9027778,29.8355885 66.8580264,30.0174767 L66.8580264,30.0174767 L66.8580264,30.0174767 Z M70.4841188,14.6289098 C70.1704515,16.2766513 68.0829972,24.7137827 67.8657489,25.2288569 C67.2994389,25.3611391 65.4060433,25.3859421 64.4727711,25.2706085 C64.1139453,24.8766552 63.8767624,24.3818367 63.6078465,23.9089275 C63.5081727,23.73324 63.4984087,23.5554855 63.5480421,23.3554086 C63.7388464,22.5840374 63.9125635,21.8085324 64.097672,21.035921 C64.6005163,18.9309786 65.1041741,16.8264497 65.6123071,14.7231609 C65.6566518,14.540446 65.7388318,14.3668254 65.808807,14.1729491 C65.9796763,14.1402919 66.1354929,14.0848987 66.2909028,14.0853121 C67.6143268,14.087379 68.9377509,14.0985403 70.261175,14.1142489 C70.3303364,14.1150756 70.3986841,14.1824569 70.5052742,14.2390903 C70.4991716,14.3659986 70.5085288,14.5007613 70.4841188,14.6289098 L70.4841188,14.6289098 L70.4841188,14.6289098 Z M131.488966,32.4733804 C132.142338,33.0058167 132.802626,33.529572 133.450709,34.0694493 C133.565842,34.1653539 133.724507,34.3377344 133.703758,34.4431468 C133.665516,34.6415703 133.714743,34.7527701 133.849811,34.8627297 C134.081705,35.0516454 134.304649,35.2529626 134.546714,35.4274098 C134.673239,35.5187674 134.831903,35.6175657 134.976735,35.6188058 C135.465747,35.6225263 135.772092,35.8965986 136.047517,36.2574814 C136.159396,36.4042321 136.290802,36.5774393 136.449874,36.6365529 C136.845314,36.7833036 137.141895,37.0615098 137.458003,37.3144997 C138.68867,38.3008297 139.91242,39.2962541 141.141459,40.2842377 C141.32616,40.4326419 141.526729,40.5607904 141.746825,40.7178756 C141.809477,40.5653376 141.862365,40.4706731 141.887588,40.3693944 C142.126399,39.4120011 142.362361,38.4541945 142.593442,37.4947345 C142.631684,37.3359957 142.658535,37.1694025 142.658535,37.0061166 C142.657721,36.3645474 142.652839,36.3645474 142.901414,35.9705941 C142.870087,35.932563 142.844457,35.8705556 142.806215,35.8614612 C142.551131,35.7982137 142.435184,35.6477425 142.49865,35.3819377 C142.567811,35.0909167 142.645516,34.8023759 142.719967,34.5117683 C142.945351,34.416277 143.139003,34.3340138 143.368863,34.2360422 C144.846884,28.0295215 146.326124,21.8184535 147.801704,15.6065587 C147.818384,15.5346303 147.78543,15.4507137 147.775259,15.3651435 C147.542145,15.2994157 147.318794,15.2361682 147.084459,15.1700272 C147.228884,14.6330436 147.742306,14.9910326 147.970946,14.7194405 C147.995355,14.6747952 148.033191,14.6297365 148.045803,14.5788905 C148.39934,13.1423873 148.753283,11.705884 149.097056,10.2669005 C149.125535,10.1486731 149.085258,10.0134972 149.075087,9.85847882 C148.872485,9.84442382 148.713414,9.82416809 148.554343,9.82416809 C144.553965,9.82210118 140.553994,9.82127441 136.553616,9.82375471 C136.372982,9.82375471 136.191942,9.85682529 135.98039,9.87708102 C135.834337,10.4715247 135.695607,11.0271104 135.56176,11.5839362 C135.324577,12.5694395 135.092276,13.5565962 134.851024,14.5408593 C134.819698,14.6685944 134.745655,14.7855816 134.699683,14.8889271 C134.460059,14.9343992 134.261932,14.972017 133.906361,15.0393982 C134.244031,15.1501848 134.429547,15.210952 134.631335,15.2770932 C134.056889,18.0814782 133.346967,20.8031867 132.70702,23.541844 C132.064633,26.2883555 131.377494,29.0245324 130.7526,31.8446261 C131.036569,32.0881082 131.258699,32.2861184 131.488966,32.4733804 L131.488966,32.4733804 L131.488966,32.4733804 Z M139.025119,15.403588 C138.888017,15.1605192 138.550347,15.3899465 138.364425,15.1100867 C138.401039,15.0505596 138.435213,14.9182774 138.500713,14.8996751 C138.704943,14.8418016 138.92097,14.8273332 139.191514,14.7876485 C139.318038,14.4623167 139.45392,14.1130087 139.584106,13.7777557 C140.268398,13.6541544 143.176025,13.6525009 143.918493,13.7785825 C144.05112,14.1597209 143.842416,14.4949739 143.760642,14.8752856 C143.50149,14.9186907 143.267969,14.957962 143.036075,14.9972333 C143.03282,15.0307172 143.023463,15.0799097 143.028752,15.0815633 C143.200435,15.1386101 143.373745,15.191523 143.595062,15.2597311 C143.587332,15.3990409 143.601164,15.5586064 143.566584,15.7065972 C143.112152,17.6544543 142.653653,19.6014846 142.190271,21.5476882 C141.772048,23.3066294 141.347316,25.0639174 140.925024,26.8220319 C140.573115,28.2866452 140.219171,29.7512585 139.868482,31.2166985 C139.779386,31.5895693 139.705342,31.9665738 139.610957,32.3382045 C139.579631,32.460979 139.506808,32.5730056 139.438461,32.7214098 C139.298104,32.6618827 139.193141,32.6374932 139.111775,32.5796197 C138.095915,31.8533071 137.089413,31.1133529 136.066638,30.3969615 C135.722865,30.1563731 135.659399,29.8963557 135.761107,29.4887608 C136.212691,27.681867 136.62888,25.8658789 137.061342,24.0540246 C137.652469,21.5757981 138.248477,19.0983984 138.839197,16.6205854 C138.923818,16.2663167 138.916495,16.2646633 138.68094,15.7975412 C138.741964,15.6185469 139.086144,15.7115579 139.025119,15.403588 L139.025119,15.403588 L139.025119,15.403588 Z M132.888061,15.5602598 C132.899452,15.5118942 132.870567,15.4540207 132.851852,15.3572892 C132.643961,15.3076833 132.418983,15.2535302 132.141524,15.1865623 C132.306698,14.6669409 132.786353,14.9592022 133.080492,14.6975312 C133.500342,13.2903781 133.785938,11.7811196 134.170395,10.2979041 C134.202534,10.1747162 134.174463,10.034993 134.174463,9.92420659 C134.109777,9.88989588 134.086994,9.8729472 134.061364,9.86550631 C134.010103,9.85062456 133.957622,9.83243574 133.905547,9.83078221 C133.689113,9.82416809 133.473085,9.82044766 133.257057,9.82086104 C129.256679,9.82664839 125.256301,9.83367588 121.25633,9.84070339 C121.229886,9.84070339 121.201815,9.84855765 121.177405,9.85971896 C121.154216,9.8704669 121.134688,9.88948249 121.046812,9.95397012 C120.586685,11.5401177 120.317769,13.2477997 119.832826,14.8083176 C119.587099,15.0278235 119.294587,14.8529629 119.10541,15.0906577 C119.328354,15.1576256 119.500037,15.208885 119.700198,15.2688255 C119.608254,16.0125001 119.46627,16.697061 119.201016,17.3630197 C118.858463,17.4043581 118.546016,17.4419759 118.222178,17.4808337 C118.164408,17.7292765 118.110706,17.9405148 118.070023,18.1546468 C118.06148,18.199292 118.101349,18.2530318 118.124945,18.3187596 C118.28483,18.3857275 118.454886,18.4568291 118.597277,18.5167696 C118.822662,18.899975 118.821441,19.2546569 118.716479,19.6486101 C118.491094,20.4956303 118.311681,21.3554654 118.107452,22.2082729 C117.404446,25.1403931 116.696559,28.0716864 115.998028,31.0054601 C115.929681,31.2923474 115.815768,31.5829552 115.921137,31.9479717 C116.62699,32.5200926 117.374747,33.1058553 118.097281,33.7222082 C118.399557,33.980572 118.903215,34.1145078 118.797845,34.6948965 C118.788895,34.7457426 118.886535,34.8275923 118.947559,34.8788517 C119.197761,35.0880231 119.44959,35.2963677 119.709149,35.4931377 C119.791736,35.5555583 119.904428,35.6245931 119.997999,35.6171523 C120.453244,35.5820149 120.751452,35.8622879 121.068781,36.1202385 C122.735571,37.4757188 124.404802,38.827892 126.074847,40.1788252 C126.302673,40.3631937 126.542297,40.5326803 126.783141,40.7137418 C127.07484,40.0709325 127.901929,36.682025 127.961326,35.930496 C127.514218,35.6506362 127.509743,35.6493961 127.600873,35.2463485 C127.654982,35.0070001 127.725771,34.7713722 127.794119,34.5163154 C127.991432,34.4315721 128.187118,34.3480688 128.44627,34.2368691 C129.934461,27.9836361 131.412888,21.7721546 132.888061,15.5602598 L132.888061,15.5602598 L132.888061,15.5602598 Z M128.838049,14.8839666 C128.556522,14.9261315 128.327475,14.961269 128.006078,15.0100481 C128.23187,15.2349281 128.496717,15.1096733 128.68508,15.3209116 C128.678571,15.4027613 128.685487,15.535457 128.655789,15.659885 C128.198103,17.6069154 127.737162,19.5531188 127.274188,21.4989091 C126.462151,24.9101392 125.650928,28.3213693 124.829942,31.7301191 C124.755084,32.041396 124.743693,32.3816097 124.512613,32.7073548 C124.367781,32.6436939 124.215218,32.6044227 124.094796,32.5188525 C123.100092,31.809902 122.11678,31.083176 121.115973,30.3829065 C120.801085,30.1625738 120.714023,29.9281861 120.808815,29.5499413 C121.195712,28.0088523 121.5582,26.4615627 121.927603,24.9159266 C122.386102,22.9982464 122.842568,21.0797395 123.301474,19.1550318 C123.224176,18.9805844 123.147285,18.8090308 123.078123,18.6527723 C122.878776,18.5907651 122.705059,18.5370253 122.523205,18.480392 C122.477233,18.0463407 122.639966,17.7011664 122.768931,17.3117605 C123.085853,17.2576073 123.398707,17.2038676 123.756719,17.1422737 C123.893821,16.5614716 124.146871,16.0145669 124.125716,15.3663836 C123.889346,15.3031362 123.666402,15.2436091 123.432474,15.1811883 C123.591138,14.8728053 123.591138,14.8728053 124.283159,14.7678062 C124.406023,14.4433011 124.53865,14.0939931 124.664768,13.7616338 C125.509351,13.6405128 128.375481,13.6599418 129.079707,13.8099996 C128.992239,14.2010591 128.915754,14.5396192 128.838049,14.8839666 L128.838049,14.8839666 L128.838049,14.8839666 Z M29.278559,31.8946453 C31.1731751,33.5721504 33.0690115,35.2488287 34.9648482,36.9250937 C36.2081264,38.0251038 37.4505909,39.1255273 38.6975307,40.2214036 C38.8293441,40.3371506 38.9461049,40.5252395 39.2268189,40.4103192 C39.3195765,40.0130589 39.417623,39.5889287 39.5185174,39.1656254 C40.3956469,35.4865236 41.2768447,31.807835 42.1507196,28.1279065 C42.9863523,24.6075434 43.8138483,21.0851135 44.6462263,17.5635102 C45.2076543,15.189456 45.7727438,12.8162287 46.3309172,10.4413478 C46.3720071,10.2669005 46.3683456,10.0812918 46.3911283,9.8427703 C45.3105828,9.80349898 44.286587,9.82788853 43.2634048,9.82375471 C42.2361543,9.82003427 41.2089038,9.82292795 40.1816533,9.82292795 C39.127552,9.82292795 38.0730436,9.81424692 37.0189423,9.82499486 C35.9982012,9.83574279 34.975019,9.77538899 33.9754331,9.86426617 C33.7589985,10.43184 33.1609557,12.8104413 33.0454153,13.5669308 C33.0254805,13.6971462 33.0425675,13.833149 33.0425675,13.9559235 C33.3480982,14.1328511 33.6520016,14.0696036 33.9437002,14.0704304 C36.0523097,14.0753909 38.1609193,14.0696036 40.2691221,14.0762177 C40.5583796,14.0770445 40.8647241,14.0026357 41.1360809,14.1927915 C41.2487733,14.473478 41.1397424,14.738456 41.0783107,14.9984734 C40.8716401,15.879391 40.6527647,16.7570015 40.4298207,17.6333718 C40.3704233,17.8669328 40.2821407,18.0930529 40.1922309,18.3671252 C39.8769363,18.3791134 39.5848309,18.3989556 39.291912,18.3993691 C37.1291937,18.4018493 34.9668824,18.3981289 32.804164,18.4039162 C32.5128724,18.404743 32.2105963,18.3431491 31.9172706,18.4890731 C31.8664165,18.6110208 31.7960346,18.7325552 31.7643018,18.8635973 C30.7793617,22.9680694 29.7980832,27.0733684 28.8192458,31.1790807 C28.8009384,31.2547296 28.823721,31.3411265 28.8302303,31.4771293 C28.9998792,31.6354547 29.1361679,31.7685638 29.278559,31.8946453 L29.278559,31.8946453 L29.278559,31.8946453 Z M36.5030795,32.3224959 C35.4896612,31.4192558 34.4811251,30.5106416 33.4518403,29.5854921 C33.5657534,29.0728982 33.6654271,28.594615 33.7785264,28.1200522 C34.248824,26.1490458 34.7215627,24.1780393 35.1975559,22.2082729 C35.337913,21.6270575 35.3464565,21.6134158 35.8794062,21.6080419 C36.905843,21.5977074 37.9322798,21.5997743 38.9587166,21.6063884 C39.1137196,21.6076285 39.2687226,21.660128 39.4196572,21.6882381 C39.3757194,22.3773462 37.1739453,31.5722072 36.8273245,32.4882621 C36.6885949,32.4188139 36.5791571,32.3902907 36.5030795,32.3224959 L36.5030795,32.3224959 L36.5030795,32.3224959 Z M104.623009,19.4658952 C104.291034,20.853206 103.9615,22.2405167 103.630746,23.6278274 C103.294296,25.0411814 102.956626,26.4545351 102.620989,27.8683024 C102.291862,29.2535463 101.96477,30.6387901 101.627099,32.0641321 C105.061167,34.9487133 108.496862,37.7890625 111.921166,40.6434669 C111.999685,40.7087812 112.102206,40.7443322 112.225476,40.8113001 C112.277144,40.6773641 112.325557,40.5843531 112.34956,40.4851414 C113.354028,36.2996464 114.357275,32.1137379 115.356048,27.9270027 C115.374355,27.8517671 115.34669,27.7653702 115.338961,27.6665719 C114.92684,27.4718689 114.490716,27.5714939 114.066797,27.5611595 C113.607484,27.5495848 113.147357,27.5442108 112.688451,27.5590925 C112.26738,27.5727342 111.825967,27.4483061 111.420763,27.7108037 C111.280406,28.3040072 111.142897,28.89101 111.003353,29.4771861 C110.856894,30.0906453 110.725487,30.7090652 110.554618,31.3154968 C110.39514,31.8818305 110.386189,32.5010771 110.024109,33.0459148 C109.858122,32.9425692 109.716137,32.8689872 109.590833,32.7734959 C109.050967,32.360527 108.515576,31.9421843 107.979372,31.5242548 C107.550164,31.1898287 107.127873,30.8458946 106.691749,30.5213896 C106.375234,30.2857616 106.216569,30.0323584 106.38093,29.6131888 C106.499724,29.310593 106.538373,28.9757535 106.614858,28.6553822 C107.033081,26.8947872 107.451304,25.1341923 107.870748,23.3735975 C107.927704,23.1354892 107.951301,22.880019 108.257238,22.6741547 C108.744623,22.6696074 109.310526,22.6596863 109.876429,22.6596863 C111.84997,22.6596863 113.823512,22.6654737 115.79746,22.6621667 C116.062308,22.6617533 116.340581,22.7125992 116.642857,22.5067349 C116.786875,21.9197321 116.954897,21.2864305 117.096067,20.6477551 C117.2409,19.9921308 117.494763,19.3526285 117.467505,18.6755084 C117.252698,18.5932454 117.082642,18.5283443 116.922757,18.4667504 C116.922757,18.3448027 116.910552,18.2625395 116.924791,18.1844103 C117.074912,17.3510317 117.076133,17.351445 117.934141,17.0980418 C118.042358,16.6499355 118.16156,16.1745459 118.268964,15.6966761 C118.291746,15.5962242 118.272218,15.4858512 118.272218,15.3738245 C118.02161,15.301896 117.798259,15.2378218 117.563924,15.1708539 C117.703874,14.6636339 118.14488,14.9472141 118.436172,14.7380427 C118.477669,14.6355239 118.557001,14.4916668 118.594429,14.3374753 C118.924777,12.9786879 119.250649,11.6190737 119.567978,10.2569793 C119.595643,10.1395787 119.554146,10.0060563 119.543975,9.86591971 C119.389379,9.84897103 119.283603,9.82747516 119.177826,9.82747516 C115.257187,9.82540825 111.336549,9.82458148 107.41591,9.82747516 C107.261721,9.82747516 107.107124,9.86715985 106.943171,9.88948249 C106.893945,10.0560755 106.850414,10.1829839 106.819087,10.3136127 C106.503386,11.6194871 106.187684,12.925775 105.878085,14.233303 C105.821129,14.4738914 105.786548,14.7190271 105.601033,14.898435 C105.026586,14.9757374 104.970037,14.9918593 104.95417,15.1146338 C105.126667,15.1526651 105.302011,15.1906962 105.614458,15.2589042 C105.295502,16.7094626 104.953357,18.0864386 104.623009,19.4658952 L104.623009,19.4658952 L104.623009,19.4658952 Z M112.895122,17.458511 C112.81823,17.7024067 112.739305,17.9541564 112.650209,18.2385634 C112.87478,18.3518301 113.059888,18.4456679 113.293003,18.5634818 C113.259236,18.7313149 113.251099,18.9235378 113.176649,19.0843434 C113.128643,19.1881023 112.989913,19.2579639 112.878441,19.3170777 C112.812535,19.3518018 112.720184,19.3414671 112.640038,19.3414671 C111.561934,19.3418805 110.483829,19.3418805 109.406131,19.33692 C109.302796,19.3365065 109.199868,19.3026093 109.051781,19.2761528 C109.045272,19.1025323 109.007843,18.9421399 109.038762,18.7970428 C109.186442,18.1025606 109.355277,17.4122122 109.511501,16.7193837 C109.58351,16.3998393 109.649824,16.0782278 109.707594,15.7553763 C109.726715,15.6516174 109.710442,15.5416577 109.710442,15.3882929 C109.529808,15.3366201 109.353243,15.2990023 109.18807,15.2316211 C109.134775,15.2101251 109.079039,15.1067796 109.084734,15.0468392 C109.09043,14.986072 109.162439,14.8947145 109.219396,14.882313 C109.427287,14.8368409 109.64006,14.8190656 109.890261,14.7855816 C110.009463,14.428006 110.128258,14.0720839 110.252749,13.6983863 C110.950872,13.4710261 111.653471,13.6099225 112.343458,13.599588 C113.010662,13.5888401 113.685596,13.5177383 114.365005,13.6715165 C114.528145,14.1134221 114.284452,14.4685174 114.203086,14.871565 C113.95085,14.9191041 113.723838,14.9620959 113.499267,15.0046741 C113.499674,15.2080583 113.643285,15.1452242 113.731161,15.1696136 C113.830428,15.198137 113.932136,15.2179794 114.026521,15.2403021 C114.013096,15.960414 113.90081,16.4486183 113.537102,17.3605396 C113.312531,17.3952637 113.128236,17.4229602 112.895122,17.458511 L112.895122,17.458511 L112.895122,17.458511 Z M83.4571738,40.544255 C85.8721278,30.4139102 88.2838271,20.2827384 90.6914582,10.1507401 C90.708952,10.0779848 90.6719303,9.99200127 90.6609458,9.91593896 C90.0258812,9.79729826 87.0047478,9.79109751 86.2565839,9.91263189 C86.0100438,10.6447318 85.8875874,11.4313982 85.6975969,12.1994624 C85.5124884,12.9443772 85.3371438,13.6909455 85.1597652,14.4375138 C84.976284,15.2101251 84.7928028,15.9835634 84.6133899,16.7574148 C84.4339771,17.5320932 84.2639213,18.3088383 84.0816607,19.0822766 C83.9059093,19.8292582 83.7159189,20.5729329 83.5377265,21.3190878 C83.3534316,22.0925259 83.1744256,22.8672043 82.9954195,23.6418824 C82.8172272,24.4161474 82.6471715,25.1924792 82.4636903,25.9650906 C82.2802091,26.7385287 82.0796411,27.5074197 81.8949394,28.2808578 C81.7167471,29.0270128 81.5552348,29.7773016 81.3770424,30.523043 C81.1947816,31.28532 81.0930738,32.0711595 80.7741176,32.8396371 C80.6357947,32.7759763 80.5251364,32.7520001 80.4502794,32.6866857 C79.3262029,31.704076 78.210263,30.7119588 77.116699,29.6805701 C77.1594164,29.459824 77.1887082,29.2721485 77.2322392,29.0877799 C77.7786144,26.7670521 78.3274306,24.4467376 78.8754332,22.1264233 C79.6309199,18.9256046 80.3864068,15.7251994 81.1418936,12.5243808 C81.2928282,11.8840517 81.4510858,11.2453762 81.588595,10.6021535 C81.6378217,10.3727263 81.7440047,10.1259371 81.5218746,9.8518647 C80.9136609,9.80267222 80.2676118,9.82540825 79.623597,9.82788853 C78.9547654,9.82995544 78.283086,9.79027075 77.5784531,9.86178587 C77.0943232,11.6992699 76.7021373,13.5173249 76.2782184,15.3279391 C75.8595884,17.1154039 75.4401448,18.903282 75.0211079,20.6911602 C74.5955618,22.5050813 74.1614722,24.3169357 73.7465037,26.1337505 C73.3323489,27.9460183 72.8567624,29.7446443 72.5129895,31.5292154 C73.133408,32.1964144 82.7814261,40.3032532 83.3493634,40.6463605 C83.3863851,40.6128765 83.4478166,40.5847665 83.4571738,40.544255 L83.4571738,40.544255 L83.4571738,40.544255 Z M54.7153152,36.6059625 C55.3064421,34.0971458 55.8943141,31.5875023 56.4870682,29.0795123 C57.072906,26.5983922 57.6644396,24.1185122 58.2510912,21.6369786 C58.8312334,19.1831417 59.4077142,16.7280647 59.9862292,14.2738144 C60.2754865,13.046896 60.5745079,11.8220444 60.8470853,10.5914055 C60.8959052,10.370246 61.0407373,10.128004 60.8784115,9.89113602 C60.1269929,9.80060531 48.8227623,9.80349898 48.1425395,9.89568323 C48.0994153,9.98497378 48.0326949,10.0775714 48.0078781,10.180917 C46.3089483,17.2989455 44.6128661,24.4178009 42.9204455,31.5374831 C42.8960355,31.6395885 42.9175978,31.7532685 42.9175978,31.9244089 C43.9407798,32.8107004 44.9871515,33.7176609 46.0363709,34.6213146 C46.1120416,34.6862155 46.2113086,34.7230066 46.3496313,34.8003089 C46.4403548,34.4952329 46.5286374,34.2418296 46.5904759,33.9822256 C46.7873825,33.1554611 46.9724911,32.3262163 47.1649225,31.4982117 C47.9102384,28.2940861 48.6563681,25.0903738 49.4029047,21.8862482 C49.9505004,19.5365836 50.4968756,17.1869191 51.0501669,14.8389079 C51.1364153,14.4718245 51.1738439,14.0824184 51.4069585,13.7814762 C52.3211097,13.6525009 55.1286564,13.6781306 55.7108329,13.8207475 C55.7987085,14.1229299 55.6868298,14.4094038 55.6172615,14.7004249 C55.2869141,16.0869088 54.9541256,17.4729794 54.6286601,18.8602903 C53.9455894,21.769261 53.2694348,24.6794719 52.5855504,27.5880293 C51.8194859,30.8438277 51.0460986,34.0979726 50.2812547,37.3537711 C50.2328417,37.5600488 50.2308075,37.7779011 50.208025,37.987486 C50.4273073,38.171441 50.6091612,38.3339004 50.8011857,38.4827179 C51.0115178,38.6460038 51.231207,38.796475 51.4390982,38.9465327 C51.6640762,38.8539351 51.8414549,38.7890342 52.0119175,38.7092513 C52.8202923,38.3289397 53.6262264,37.9440809 54.481387,37.5381396 C54.568449,37.1884182 54.6461539,36.8982238 54.7153152,36.6059625 L54.7153152,36.6059625 L54.7153152,36.6059625 Z M135.133773,3.40888927 C134.644354,2.85619723 134.04387,2.39362252 133.464135,1.91203223 C132.894977,1.43912295 132.402303,0.859147687 131.672447,0.487517063 C131.333963,1.90211105 131.008497,3.25428432 130.690762,4.60852451 C130.667572,4.70732287 130.70378,4.82058959 130.713951,4.94832469 C131.804667,5.83957678 132.892536,6.72834858 134.041022,7.66672624 C134.35469,6.88708735 135.010502,4.29931461 135.133773,3.40888927 L135.133773,3.40888927 L135.133773,3.40888927 Z M124.881609,0.798793875 C124.589504,2.15840803 124.165178,3.48784528 123.953626,4.82761708 C124.589097,5.48696175 126.777039,7.25582431 127.335212,7.57164833 C127.608196,7.07104245 128.348224,4.15173715 128.393789,3.39607443 C127.817715,2.77641447 125.603736,0.884777392 125.035392,0.533815873 C124.982504,0.621866288 124.901951,0.70330258 124.881609,0.798793875 L124.881609,0.798793875 L124.881609,0.798793875 Z M138.942532,4.94253734 C139.16751,5.1343467 139.413644,5.34517164 139.660998,5.55434305 C139.927066,5.78004975 140.168317,6.01567762 140.378649,6.31041915 C140.548298,6.54894069 140.915667,6.6374045 141.18621,6.8068912 C141.322499,6.89246132 141.437632,7.01316893 141.565378,7.1140342 C141.77571,7.27980048 141.988076,7.44225969 142.256178,7.64977757 C142.346495,7.42489764 142.459187,7.26119827 142.467324,7.09253832 C142.479122,6.85980413 142.343647,6.60516067 142.396942,6.39268221 C142.450644,6.17648331 142.721594,6.01898467 142.785466,5.801959 C143.015733,5.01983983 143.237863,4.23276007 143.367236,3.37457856 C142.567405,2.67885627 141.772455,1.98396073 140.973844,1.29402579 C140.686621,1.04599646 140.391261,0.807474902 140.09468,0.570606893 C140.060913,0.543323664 139.996634,0.555725124 139.946187,0.549524397 C139.651234,1.21506979 138.934803,4.31915694 138.942532,4.94253734 L138.942532,4.94253734 L138.942532,4.94253734 Z M46.8390501,7.32940634 C47.13441,6.16160154 47.4224471,4.99214322 47.7194343,3.82475181 C47.7955119,3.52546306 47.7279778,3.29603592 47.4912017,3.09554555 C46.5168393,2.27043462 45.5502067,1.4358159 44.577065,0.609051443 C44.5249905,0.564819542 44.4375216,0.563992776 44.3199472,0.528855286 C43.9314227,1.97197265 43.5888703,3.3989681 43.2906624,4.81066842 C43.8150688,5.36625414 46.0550852,7.19629726 46.701541,7.59479773 C46.7654136,7.47367675 46.8195223,7.40629544 46.8390501,7.32940634 L46.8390501,7.32940634 L46.8390501,7.32940634 Z M37.1239048,2.40354369 C36.9534424,3.09389202 36.7935574,3.78672063 36.6210607,4.47624219 C36.5421354,4.79165284 36.6824923,4.99048969 36.9111318,5.17609832 C37.8391154,5.92638705 38.7585553,6.68783712 39.6873525,7.43729911 C39.7772624,7.509641 39.9094827,7.52741642 40.0238025,7.57123495 C40.4102928,6.39598926 40.9949102,3.93264456 41.0213542,3.38656663 C40.2976004,2.63751804 38.1857361,0.848813127 37.6023393,0.51480029 C37.4314698,1.18819994 37.2740259,1.79463167 37.1239048,2.40354369 L37.1239048,2.40354369 L37.1239048,2.40354369 Z M146.084059,2.65363994 C145.90546,3.39235398 145.6577,4.11866656 145.603591,4.87722296 C145.734591,4.9995841 145.828162,5.09755568 145.931904,5.18271242 C146.857447,5.94044205 147.785023,6.69610476 148.712193,7.45135409 C148.75369,7.48525145 148.802917,7.51046776 148.850109,7.53609745 C148.873705,7.54891231 148.90137,7.56048701 148.927001,7.56048701 C148.951817,7.56048701 148.976634,7.54601864 149.055559,7.51956216 C149.110075,7.3492487 149.185339,7.14917169 149.237413,6.94289395 C149.433506,6.17317624 149.606817,5.39684441 149.818369,4.63126053 C149.945707,4.17116611 149.970117,3.71768581 149.906245,3.27081961 C149.012028,2.36344563 147.195931,0.832691231 146.636944,0.521001023 C146.36396,1.21176274 146.255742,1.94220913 146.084059,2.65363994 L146.084059,2.65363994 L146.084059,2.65363994 Z" id="Shape"></path>
                    </g>
                </g>
            </g>
        </g>
    </g>
</svg>